<svg version="1.1" viewBox="0.0 0.0 960.0 540.0" fill="none" stroke="none" stroke-linecap="square" stroke-miterlimit="10" xmlns:xlink="http://www.w3.org/1999/xlink" xmlns="http://www.w3.org/2000/svg"><clipPath id="g346319d857c_0_0.0"><path d="m0 0l960.0 0l0 540.0l-960.0 0l0 -540.0z" clip-rule="nonzero"/></clipPath><g clip-path="url(#g346319d857c_0_0.0)"><path fill="#ffffff" d="m0 0l960.0 0l0 540.0l-960.0 0z" fill-rule="evenodd"/><path fill="#000000" fill-opacity="0.0" d="m136.94489 33.259842l182.86615 0l0 60.125984l-182.86615 0z" fill-rule="evenodd"/><path fill="#003049" d="m164.81989 52.98459l-12.34375 0l0 6.890625l10.609375 0l0 2.875l-10.609375 0l0 11.765625l-3.25 0l0 -24.421875l15.59375 0l0 2.890625zm6.5878143 21.53125l-3.09375 0l0 -25.515625l3.09375 0l0 25.515625zm21.718597 -9.15625q0 4.484375 -2.296875 7.078125q-2.296875 2.59375 -6.15625 2.59375q-3.890625 0 -6.1875 -2.59375q-2.28125 -2.59375 -2.28125 -7.078125q0 -4.46875 2.28125 -7.0625q2.296875 -2.609375 6.1875 -2.609375q3.859375 0 6.15625 2.609375q2.296875 2.59375 2.296875 7.0625zm-3.1875 0q0 -3.5625 -1.40625 -5.28125q-1.390625 -1.734375 -3.859375 -1.734375q-2.515625 0 -3.90625 1.734375q-1.375 1.71875 -1.375 5.28125q0 3.453125 1.390625 5.234375q1.390625 1.765625 3.890625 1.765625q2.453125 0 3.859375 -1.75q1.40625 -1.765625 1.40625 -5.25zm30.99855 -9.171875l-4.765625 18.328125l-2.859375 0l-4.703125 -14.125l-4.671875 14.125l-2.84375 0l-4.828125 -18.328125l3.21875 0l3.359375 14.1875l4.578125 -14.1875l2.546875 0l4.6875 14.1875l3.1875 -14.1875l3.09375 0zm19.788635 9.484375l-13.5 0q0 1.6875 0.5 2.953125q0.515625 1.25 1.40625 2.046875q0.84375 0.796875 2.015625 1.1875q1.171875 0.390625 2.59375 0.390625q1.859375 0 3.75 -0.734375q1.90625 -0.75 2.703125 -1.484375l0.171875 0l0 3.375q-1.5625 0.65625 -3.1875 1.09375q-1.625 0.4375 -3.40625 0.4375q-4.5625 0 -7.125 -2.46875q-2.5625 -2.46875 -2.5625 -7.0q0 -4.5 2.453125 -7.140625q2.453125 -2.640625 6.453125 -2.640625q3.71875 0 5.71875 2.171875q2.015625 2.15625 2.015625 6.140625l0 1.671875zm-3.0 -2.359375q-0.015625 -2.421875 -1.234375 -3.75q-1.203125 -1.328125 -3.65625 -1.328125q-2.484375 0 -3.953125 1.453125q-1.46875 1.453125 -1.65625 3.625l10.5 0zm19.105652 -3.75l-0.171875 0q-0.6875 -0.171875 -1.34375 -0.234375q-0.640625 -0.078125 -1.515625 -0.078125q-1.4375 0 -2.765625 0.625q-1.328125 0.625 -2.546875 1.640625l0 13.0l-3.09375 0l0 -18.328125l3.09375 0l0 2.71875q1.828125 -1.484375 3.234375 -2.09375q1.40625 -0.625 2.859375 -0.625q0.8125 0 1.171875 0.046875q0.359375 0.046875 1.078125 0.15625l0 3.171875zm18.742645 -3.375l-10.6875 25.09375l-3.296875 0l3.40625 -7.65625l-7.296875 -17.4375l3.34375 0l5.625 13.59375l5.6875 -13.59375l3.21875 0z" fill-rule="nonzero"/><path fill="#000000" fill-opacity="0.0" d="m156.05774 86.13911l629.07086 0l0 60.125984l-629.07086 0z" fill-rule="evenodd"/><path fill="#003049" d="m184.63586 118.97348l-2.390625 0l0 -1.15625l-11.5625 0l0 1.671875l-2.390625 0l0 -16.25l16.34375 0l0 15.734375zm-13.953125 -13.4375l0 10.0l11.5625 0l0 -10.0l-11.5625 0z" fill-rule="nonzero"/><path fill="#003049" d="m205.9602 120.739105l-2.75 0l-1.90625 -5.40625l-8.375 0l-1.90625 5.40625l-2.609375 0l7.046875 -19.375l3.4375 0l7.0625 19.375zm-5.453125 -7.609375l-3.390625 -9.515625l-3.40625 9.515625l6.796875 0zm20.347046 7.609375l-2.4375 0l0 -8.28125q0 -1.0 -0.125 -1.875q-0.109375 -0.875 -0.421875 -1.375q-0.328125 -0.546875 -0.953125 -0.8125q-0.609375 -0.265625 -1.578125 -0.265625q-1.0 0 -2.09375 0.5q-1.09375 0.484375 -2.09375 1.25l0 10.859375l-2.453125 0l0 -14.53125l2.453125 0l0 1.609375q1.140625 -0.953125 2.359375 -1.484375q1.234375 -0.53125 2.515625 -0.53125q2.359375 0 3.59375 1.421875q1.234375 1.40625 1.234375 4.078125l0 9.4375zm12.259033 -0.125q-0.6875 0.171875 -1.5 0.28125q-0.8125 0.125 -1.453125 0.125q-2.21875 0 -3.390625 -1.1875q-1.15625 -1.203125 -1.15625 -3.84375l0 -7.734375l-1.640625 0l0 -2.046875l1.640625 0l0 -4.1875l2.453125 0l0 4.1875l5.046875 0l0 2.046875l-5.046875 0l0 6.625q0 1.140625 0.046875 1.796875q0.0625 0.640625 0.375 1.203125q0.28125 0.515625 0.78125 0.765625q0.5 0.234375 1.53125 0.234375q0.59375 0 1.25 -0.171875q0.65625 -0.1875 0.9375 -0.296875l0.125 0l0 2.203125zm5.581833 -16.84375l-2.75 0l0 -2.546875l2.75 0l0 2.546875zm-0.15625 16.96875l-2.4375 0l0 -14.53125l2.4375 0l0 14.53125zm12.549225 -7.296875l-8.125 0l0 -2.359375l8.125 0l0 2.359375zm19.57341 5.890625q-0.71875 0.3125 -1.296875 0.59375q-0.578125 0.265625 -1.515625 0.5625q-0.796875 0.25 -1.734375 0.421875q-0.921875 0.171875 -2.046875 0.171875q-2.109375 0 -3.84375 -0.578125q-1.71875 -0.59375 -2.984375 -1.859375q-1.2500153 -1.234375 -1.9531403 -3.140625q-0.703125 -1.90625 -0.703125 -4.4375q0 -2.390625 0.671875 -4.28125q0.671875 -1.890625 1.9531403 -3.1875q1.234375 -1.265625 2.984375 -1.921875q1.75 -0.671875 3.890625 -0.671875q1.5625 0 3.109375 0.375q1.5625 0.375 3.46875 1.328125l0 3.0625l-0.203125 0q-1.59375 -1.34375 -3.171875 -1.953125q-1.578125 -0.609375 -3.375 -0.609375q-1.46875 0 -2.65625 0.484375q-1.171875 0.46875 -2.09375 1.46875q-0.890625 0.96875 -1.40625 2.46875q-0.5 1.484375 -0.5 3.4375q0 2.046875 0.546875 3.515625q0.5625 1.46875 1.4375 2.390625q0.90625 0.96875 2.125 1.4375q1.21875 0.453125 2.578125 0.453125q1.859375 0 3.484375 -0.640625q1.625 -0.640625 3.046875 -1.90625l0.1875 0l0 3.015625zm15.831268 -5.859375q0 3.5625 -1.828125 5.625q-1.8125 2.046875 -4.875 2.046875q-3.078125 0 -4.90625 -2.046875q-1.8125 -2.0625 -1.8125 -5.625q0 -3.546875 1.8125 -5.609375q1.828125 -2.0625 4.90625 -2.0625q3.0625 0 4.875 2.0625q1.828125 2.0625 1.828125 5.609375zm-2.515625 0q0 -2.828125 -1.109375 -4.1875q-1.109375 -1.375 -3.078125 -1.375q-1.984375 0 -3.09375 1.375q-1.09375 1.359375 -1.09375 4.1875q0 2.734375 1.109375 4.15625q1.109375 1.40625 3.078125 1.40625q1.953125 0 3.0625 -1.390625q1.125 -1.40625 1.125 -4.171875zm27.522308 7.265625l-2.453125 0l0 -8.28125q0 -0.9375 -0.09375 -1.796875q-0.078125 -0.875 -0.34375 -1.40625q-0.296875 -0.5625 -0.859375 -0.84375q-0.5625 -0.28125 -1.609375 -0.28125q-1.03125 0 -2.0625 0.515625q-1.03125 0.515625 -2.0625 1.296875q0.046875 0.3125 0.0625 0.703125q0.03125 0.390625 0.03125 0.78125l0 9.3125l-2.4375 0l0 -8.28125q0 -0.953125 -0.09375 -1.8125q-0.078125 -0.875 -0.359375 -1.40625q-0.296875 -0.546875 -0.859375 -0.828125q-0.546875 -0.28125 -1.609375 -0.28125q-1.0 0 -2.015625 0.5q-1.0 0.484375 -2.0 1.25l0 10.859375l-2.453125 0l0 -14.53125l2.453125 0l0 1.609375q1.140625 -0.953125 2.28125 -1.484375q1.140625 -0.53125 2.421875 -0.53125q1.484375 0 2.515625 0.625q1.046875 0.625 1.546875 1.71875q1.484375 -1.234375 2.703125 -1.78125q1.234375 -0.5625 2.625 -0.5625q2.390625 0 3.53125 1.453125q1.140625 1.4375 1.140625 4.046875l0 9.4375zm17.505493 -7.4375q0 1.765625 -0.515625 3.234375q-0.5 1.453125 -1.421875 2.46875q-0.859375 0.96875 -2.03125 1.5q-1.15625 0.515625 -2.46875 0.515625q-1.125 0 -2.046875 -0.25q-0.90625 -0.234375 -1.859375 -0.765625l0 6.09375l-2.453125 0l0 -19.890625l2.453125 0l0 1.515625q0.96875 -0.8125 2.1875 -1.359375q1.21875 -0.5625 2.59375 -0.5625q2.640625 0 4.09375 1.984375q1.46875 1.984375 1.46875 5.515625zm-2.53125 0.0625q0 -2.640625 -0.90625 -3.9375q-0.890625 -1.296875 -2.75 -1.296875q-1.046875 0 -2.125 0.453125q-1.0625 0.453125 -2.03125 1.203125l0 8.234375q1.03125 0.46875 1.78125 0.640625q0.75 0.171875 1.703125 0.171875q2.046875 0 3.1875 -1.375q1.140625 -1.390625 1.140625 -4.09375zm17.639343 7.375l-2.4375 0l0 -1.546875q-0.3125 0.21875 -0.875 0.625q-0.546875 0.390625 -1.078125 0.625q-0.609375 0.296875 -1.40625 0.5q-0.78125 0.203125 -1.859375 0.203125q-1.953125 0 -3.328125 -1.296875q-1.359375 -1.3125 -1.359375 -3.328125q0 -1.65625 0.703125 -2.671875q0.703125 -1.015625 2.03125 -1.609375q1.328125 -0.578125 3.1875 -0.78125q1.859375 -0.21875 3.984375 -0.328125l0 -0.375q0 -0.828125 -0.296875 -1.375q-0.28125 -0.546875 -0.828125 -0.859375q-0.515625 -0.296875 -1.25 -0.40625q-0.734375 -0.109375 -1.53125 -0.109375q-0.953125 0 -2.140625 0.265625q-1.1875 0.25 -2.453125 0.734375l-0.125 0l0 -2.484375q0.71875 -0.203125 2.0625 -0.4375q1.359375 -0.234375 2.671875 -0.234375q1.546875 0 2.671875 0.265625q1.140625 0.25 1.984375 0.859375q0.8125 0.59375 1.234375 1.546875q0.4375 0.953125 0.4375 2.359375l0 9.859375zm-2.4375 -3.578125l0 -4.046875q-1.109375 0.0625 -2.625 0.203125q-1.515625 0.125 -2.40625 0.375q-1.046875 0.296875 -1.703125 0.921875q-0.65625 0.625 -0.65625 1.734375q0 1.25 0.75 1.890625q0.765625 0.625 2.3125 0.625q1.28125 0 2.34375 -0.5q1.078125 -0.5 1.984375 -1.203125zm16.228119 -8.296875l-0.140625 0q-0.546875 -0.125 -1.0625 -0.1875q-0.5 -0.0625 -1.203125 -0.0625q-1.140625 0 -2.203125 0.515625q-1.046875 0.5 -2.015625 1.28125l0 10.328125l-2.453125 0l0 -14.53125l2.453125 0l0 2.140625q1.453125 -1.171875 2.5625 -1.65625q1.109375 -0.484375 2.28125 -0.484375q0.625 0 0.90625 0.03125q0.296875 0.03125 0.875 0.125l0 2.5zm4.922638 -5.09375l-2.75 0l0 -2.546875l2.75 0l0 2.546875zm-0.15625 16.96875l-2.4375 0l0 -14.53125l2.4375 0l0 14.53125zm15.236725 -4.1875q0 1.984375 -1.65625 3.265625q-1.640625 1.265625 -4.484375 1.265625q-1.625 0 -2.96875 -0.375q-1.34375 -0.390625 -2.25 -0.84375l0 -2.75l0.125 0q1.15625 0.875 2.578125 1.390625q1.421875 0.515625 2.71875 0.515625q1.609375 0 2.515625 -0.515625q0.921875 -0.53125 0.921875 -1.640625q0 -0.859375 -0.5 -1.3125q-0.484375 -0.4375 -1.890625 -0.75q-0.53125 -0.109375 -1.375 -0.265625q-0.828125 -0.15625 -1.515625 -0.34375q-1.921875 -0.5 -2.71875 -1.484375q-0.796875 -0.984375 -0.796875 -2.421875q0 -0.890625 0.359375 -1.6875q0.375 -0.796875 1.140625 -1.421875q0.71875 -0.609375 1.84375 -0.96875q1.125 -0.359375 2.515625 -0.359375q1.3125 0 2.640625 0.328125q1.34375 0.3125 2.21875 0.765625l0 2.609375l-0.125 0q-0.9375 -0.6875 -2.28125 -1.15625q-1.34375 -0.484375 -2.625 -0.484375q-1.34375 0 -2.265625 0.515625q-0.921875 0.515625 -0.921875 1.53125q0 0.90625 0.5625 1.359375q0.546875 0.453125 1.765625 0.734375q0.671875 0.15625 1.515625 0.3125q0.84375 0.15625 1.390625 0.296875q1.71875 0.390625 2.640625 1.34375q0.921875 0.953125 0.921875 2.546875zm15.887817 -3.078125q0 3.5625 -1.828125 5.625q-1.8125 2.046875 -4.875 2.046875q-3.078125 0 -4.90625 -2.046875q-1.8125 -2.0625 -1.8125 -5.625q0 -3.546875 1.8125 -5.609375q1.828125 -2.0625 4.90625 -2.0625q3.0625 0 4.875 2.0625q1.828125 2.0625 1.828125 5.609375zm-2.515625 0q0 -2.828125 -1.109375 -4.1875q-1.109375 -1.375 -3.078125 -1.375q-1.984375 0 -3.09375 1.375q-1.09375 1.359375 -1.09375 4.1875q0 2.734375 1.109375 4.15625q1.109375 1.40625 3.078125 1.40625q1.953125 0 3.0625 -1.390625q1.125 -1.40625 1.125 -4.171875zm18.459808 7.265625l-2.4375 0l0 -8.28125q0 -1.0 -0.125 -1.875q-0.109375 -0.875 -0.421875 -1.375q-0.328125 -0.546875 -0.953125 -0.8125q-0.609375 -0.265625 -1.578125 -0.265625q-1.0 0 -2.09375 0.5q-1.09375 0.484375 -2.09375 1.25l0 10.859375l-2.453125 0l0 -14.53125l2.453125 0l0 1.609375q1.140625 -0.953125 2.359375 -1.484375q1.234375 -0.53125 2.515625 -0.53125q2.359375 0 3.59375 1.421875q1.234375 1.40625 1.234375 4.078125l0 9.4375zm30.661621 -9.671875q0 2.640625 -1.15625 4.796875q-1.15625 2.140625 -3.0625 3.328125q-1.328125 0.8125 -2.96875 1.1875q-1.625 0.359375 -4.296875 0.359375l-4.890625 0l0 -19.375l4.828125 0q2.84375 0 4.515625 0.40625q1.671875 0.40625 2.828125 1.125q1.984375 1.234375 3.09375 3.296875q1.109375 2.046875 1.109375 4.875zm-2.703125 -0.03125q0 -2.28125 -0.796875 -3.84375q-0.796875 -1.5625 -2.359375 -2.46875q-1.15625 -0.640625 -2.453125 -0.890625q-1.28125 -0.265625 -3.078125 -0.265625l-2.40625 0l0 14.953125l2.40625 0q1.875 0 3.25 -0.265625q1.390625 -0.28125 2.546875 -1.015625q1.453125 -0.921875 2.171875 -2.421875q0.71875 -1.515625 0.71875 -3.78125zm18.710724 9.703125l-2.4375 0l0 -1.609375q-1.234375 0.96875 -2.375 1.5q-1.125 0.515625 -2.5 0.515625q-2.28125 0 -3.5625 -1.390625q-1.28125 -1.40625 -1.28125 -4.125l0 -9.421875l2.453125 0l0 8.265625q0 1.109375 0.09375 1.90625q0.109375 0.78125 0.453125 1.34375q0.359375 0.5625 0.90625 0.828125q0.5625 0.265625 1.625 0.265625q0.953125 0 2.078125 -0.5q1.125 -0.5 2.109375 -1.265625l0 -10.84375l2.4375 0l0 14.53125zm17.618408 -7.4375q0 1.765625 -0.515625 3.234375q-0.5 1.453125 -1.421875 2.46875q-0.859375 0.96875 -2.03125 1.5q-1.15625 0.515625 -2.46875 0.515625q-1.125 0 -2.046875 -0.25q-0.90625 -0.234375 -1.859375 -0.765625l0 6.09375l-2.453125 0l0 -19.890625l2.453125 0l0 1.515625q0.96875 -0.8125 2.1875 -1.359375q1.21875 -0.5625 2.59375 -0.5625q2.640625 0 4.09375 1.984375q1.46875 1.984375 1.46875 5.515625zm-2.53125 0.0625q0 -2.640625 -0.90625 -3.9375q-0.890625 -1.296875 -2.75 -1.296875q-1.046875 0 -2.125 0.453125q-1.0625 0.453125 -2.03125 1.203125l0 8.234375q1.03125 0.46875 1.78125 0.640625q0.75 0.171875 1.703125 0.171875q2.046875 0 3.1875 -1.375q1.140625 -1.390625 1.140625 -4.09375zm8.811218 7.375l-2.4375 0l0 -20.25l2.4375 0l0 20.25zm7.4711 -16.96875l-2.75 0l0 -2.546875l2.75 0l0 2.546875zm-0.15625 16.96875l-2.4375 0l0 -14.53125l2.4375 0l0 14.53125zm15.5961 -0.90625q-1.21875 0.578125 -2.328125 0.90625q-1.09375 0.328125 -2.328125 0.328125q-1.578125 0 -2.890625 -0.453125q-1.3125 -0.46875 -2.25 -1.40625q-0.953125 -0.9375 -1.484375 -2.375q-0.515625 -1.4375 -0.515625 -3.34375q0 -3.5625 1.953125 -5.59375q1.96875 -2.03125 5.1875 -2.03125q1.25 0 2.453125 0.359375q1.203125 0.34375 2.203125 0.84375l0 2.71875l-0.125 0q-1.125 -0.859375 -2.3125 -1.328125q-1.1875 -0.46875 -2.328125 -0.46875q-2.078125 0 -3.28125 1.40625q-1.203125 1.390625 -1.203125 4.09375q0 2.625 1.171875 4.046875q1.1875 1.40625 3.3125 1.40625q0.75 0 1.515625 -0.1875q0.765625 -0.203125 1.375 -0.515625q0.53125 -0.265625 1.0 -0.578125q0.46875 -0.3125 0.75 -0.53125l0.125 0l0 2.703125zm14.434662 0.90625l-2.4375 0l0 -1.546875q-0.3125 0.21875 -0.875 0.625q-0.546875 0.390625 -1.078125 0.625q-0.609375 0.296875 -1.40625 0.5q-0.78125 0.203125 -1.859375 0.203125q-1.953125 0 -3.328125 -1.296875q-1.359375 -1.3125 -1.359375 -3.328125q0 -1.65625 0.703125 -2.671875q0.703125 -1.015625 2.03125 -1.609375q1.328125 -0.578125 3.1875 -0.78125q1.859375 -0.21875 3.984375 -0.328125l0 -0.375q0 -0.828125 -0.296875 -1.375q-0.28125 -0.546875 -0.828125 -0.859375q-0.515625 -0.296875 -1.25 -0.40625q-0.734375 -0.109375 -1.53125 -0.109375q-0.953125 0 -2.140625 0.265625q-1.1875 0.25 -2.453125 0.734375l-0.125 0l0 -2.484375q0.71875 -0.203125 2.0625 -0.4375q1.359375 -0.234375 2.671875 -0.234375q1.546875 0 2.671875 0.265625q1.140625 0.25 1.984375 0.859375q0.8125 0.59375 1.234375 1.546875q0.4375 0.953125 0.4375 2.359375l0 9.859375zm-2.4375 -3.578125l0 -4.046875q-1.109375 0.0625 -2.625 0.203125q-1.515625 0.125 -2.40625 0.375q-1.046875 0.296875 -1.703125 0.921875q-0.65625 0.625 -0.65625 1.734375q0 1.25 0.75 1.890625q0.765625 0.625 2.3125 0.625q1.28125 0 2.34375 -0.5q1.078125 -0.5 1.984375 -1.203125zm14.696899 3.453125q-0.6875 0.171875 -1.5 0.28125q-0.8125 0.125 -1.453125 0.125q-2.21875 0 -3.390625 -1.1875q-1.15625 -1.203125 -1.15625 -3.84375l0 -7.734375l-1.640625 0l0 -2.046875l1.640625 0l0 -4.1875l2.453125 0l0 4.1875l5.046875 0l0 2.046875l-5.046875 0l0 6.625q0 1.140625 0.046875 1.796875q0.0625 0.640625 0.375 1.203125q0.28125 0.515625 0.78125 0.765625q0.5 0.234375 1.53125 0.234375q0.59375 0 1.25 -0.171875q0.65625 -0.1875 0.9375 -0.296875l0.125 0l0 2.203125zm5.581787 -16.84375l-2.75 0l0 -2.546875l2.75 0l0 2.546875zm-0.15625 16.96875l-2.4375 0l0 -14.53125l2.4375 0l0 14.53125zm17.236755 -7.265625q0 3.5625 -1.828125 5.625q-1.8125 2.046875 -4.875 2.046875q-3.078125 0 -4.90625 -2.046875q-1.8125 -2.0625 -1.8125 -5.625q0 -3.546875 1.8125 -5.609375q1.828125 -2.0625 4.90625 -2.0625q3.0625 0 4.875 2.0625q1.828125 2.0625 1.828125 5.609375zm-2.515625 0q0 -2.828125 -1.109375 -4.1875q-1.109375 -1.375 -3.078125 -1.375q-1.984375 0 -3.09375 1.375q-1.09375 1.359375 -1.09375 4.1875q0 2.734375 1.109375 4.15625q1.109375 1.40625 3.078125 1.40625q1.953125 0 3.0625 -1.390625q1.125 -1.40625 1.125 -4.171875zm18.459778 7.265625l-2.4375 0l0 -8.28125q0 -1.0 -0.125 -1.875q-0.109375 -0.875 -0.421875 -1.375q-0.328125 -0.546875 -0.953125 -0.8125q-0.609375 -0.265625 -1.578125 -0.265625q-1.0 0 -2.09375 0.5q-1.09375 0.484375 -2.09375 1.25l0 10.859375l-2.453125 0l0 -14.53125l2.453125 0l0 1.609375q1.140625 -0.953125 2.359375 -1.484375q1.234375 -0.53125 2.515625 -0.53125q2.359375 0 3.59375 1.421875q1.234375 1.40625 1.234375 4.078125l0 9.4375zm28.724121 -17.15625q1.1875 1.296875 1.8125 3.1875q0.640625 1.890625 0.640625 4.28125q0 2.40625 -0.65625 4.296875q-0.640625 1.890625 -1.796875 3.15625q-1.1875 1.3125 -2.828125 1.984375q-1.625 0.65625 -3.734375 0.65625q-2.03125 0 -3.703125 -0.671875q-1.671875 -0.6875 -2.84375 -1.96875q-1.171875 -1.296875 -1.8125 -3.171875q-0.625 -1.875 -0.625 -4.28125q0 -2.359375 0.625 -4.234375q0.625 -1.890625 1.8125 -3.234375q1.15625 -1.28125 2.84375 -1.953125q1.703125 -0.671875 3.703125 -0.671875q2.09375 0 3.75 0.6875q1.65625 0.671875 2.8125 1.9375zm-0.234375 7.46875q0 -3.765625 -1.6875 -5.8125q-1.6875 -2.0625 -4.625 -2.0625q-2.953125 0 -4.640625 2.0625q-1.6875 2.046875 -1.6875 5.8125q0 3.8125 1.71875 5.84375q1.71875 2.015625 4.609375 2.015625q2.890625 0 4.59375 -2.015625q1.71875 -2.03125 1.71875 -5.84375zm19.37201 2.25q0 1.765625 -0.515625 3.234375q-0.5 1.453125 -1.421875 2.46875q-0.859375 0.96875 -2.03125 1.5q-1.15625 0.515625 -2.46875 0.515625q-1.125 0 -2.046875 -0.25q-0.90625 -0.234375 -1.859375 -0.765625l0 6.09375l-2.453125 0l0 -19.890625l2.453125 0l0 1.515625q0.96875 -0.8125 2.1875 -1.359375q1.21875 -0.5625 2.59375 -0.5625q2.640625 0 4.09375 1.984375q1.46875 1.984375 1.46875 5.515625zm-2.53125 0.0625q0 -2.640625 -0.90625 -3.9375q-0.890625 -1.296875 -2.75 -1.296875q-1.046875 0 -2.125 0.453125q-1.0625 0.453125 -2.03125 1.203125l0 8.234375q1.03125 0.46875 1.78125 0.640625q0.75 0.171875 1.703125 0.171875q2.046875 0 3.1875 -1.375q1.140625 -1.390625 1.140625 -4.09375zm13.889343 7.25q-0.6875 0.171875 -1.5 0.28125q-0.8125 0.125 -1.453125 0.125q-2.21875 0 -3.390625 -1.1875q-1.15625 -1.203125 -1.15625 -3.84375l0 -7.734375l-1.640625 0l0 -2.046875l1.640625 0l0 -4.1875l2.453125 0l0 4.1875l5.046875 0l0 2.046875l-5.046875 0l0 6.625q0 1.140625 0.046875 1.796875q0.0625 0.640625 0.375 1.203125q0.28125 0.515625 0.78125 0.765625q0.5 0.234375 1.53125 0.234375q0.59375 0 1.25 -0.171875q0.65625 -0.1875 0.9375 -0.296875l0.125 0l0 2.203125zm5.581848 -16.84375l-2.75 0l0 -2.546875l2.75 0l0 2.546875zm-0.15625 16.96875l-2.4375 0l0 -14.53125l2.4375 0l0 14.53125zm26.06488 0l-2.453125 0l0 -8.28125q0 -0.9375 -0.09375 -1.796875q-0.078125 -0.875 -0.34375 -1.40625q-0.296875 -0.5625 -0.859375 -0.84375q-0.5625 -0.28125 -1.609375 -0.28125q-1.03125 0 -2.0625 0.515625q-1.03125 0.515625 -2.0625 1.296875q0.046875 0.3125 0.0625 0.703125q0.03125 0.390625 0.03125 0.78125l0 9.3125l-2.4375 0l0 -8.28125q0 -0.953125 -0.09375 -1.8125q-0.078125 -0.875 -0.359375 -1.40625q-0.296875 -0.546875 -0.859375 -0.828125q-0.546875 -0.28125 -1.609375 -0.28125q-1.0 0 -2.015625 0.5q-1.0 0.484375 -2.0 1.25l0 10.859375l-2.453125 0l0 -14.53125l2.453125 0l0 1.609375q1.140625 -0.953125 2.28125 -1.484375q1.140625 -0.53125 2.421875 -0.53125q1.484375 0 2.515625 0.625q1.046875 0.625 1.546875 1.71875q1.484375 -1.234375 2.703125 -1.78125q1.234375 -0.5625 2.625 -0.5625q2.390625 0 3.53125 1.453125q1.140625 1.4375 1.140625 4.046875l0 9.4375zm7.333618 -16.96875l-2.75 0l0 -2.546875l2.75 0l0 2.546875zm-0.15625 16.96875l-2.4375 0l0 -14.53125l2.4375 0l0 14.53125zm15.392944 0l-11.75 0l0 -1.8125l8.484375 -10.6875l-8.296875 0l0 -2.03125l11.34375 0l0 1.734375l-8.515625 10.734375l8.734375 0l0 2.0625zm14.754944 0l-2.4375 0l0 -1.546875q-0.3125 0.21875 -0.875 0.625q-0.546875 0.390625 -1.078125 0.625q-0.609375 0.296875 -1.40625 0.5q-0.78125 0.203125 -1.859375 0.203125q-1.953125 0 -3.328125 -1.296875q-1.359375 -1.3125 -1.359375 -3.328125q0 -1.65625 0.703125 -2.671875q0.703125 -1.015625 2.03125 -1.609375q1.328125 -0.578125 3.1875 -0.78125q1.859375 -0.21875 3.984375 -0.328125l0 -0.375q0 -0.828125 -0.296875 -1.375q-0.28125 -0.546875 -0.828125 -0.859375q-0.515625 -0.296875 -1.25 -0.40625q-0.734375 -0.109375 -1.53125 -0.109375q-0.953125 0 -2.140625 0.265625q-1.1875 0.25 -2.453125 0.734375l-0.125 0l0 -2.484375q0.71875 -0.203125 2.0625 -0.4375q1.359375 -0.234375 2.671875 -0.234375q1.546875 0 2.671875 0.265625q1.140625 0.25 1.984375 0.859375q0.8125 0.59375 1.234375 1.546875q0.4375 0.953125 0.4375 2.359375l0 9.859375zm-2.4375 -3.578125l0 -4.046875q-1.109375 0.0625 -2.625 0.203125q-1.515625 0.125 -2.40625 0.375q-1.046875 0.296875 -1.703125 0.921875q-0.65625 0.625 -0.65625 1.734375q0 1.25 0.75 1.890625q0.765625 0.625 2.3125 0.625q1.28125 0 2.34375 -0.5q1.078125 -0.5 1.984375 -1.203125zm14.696838 3.453125q-0.6875 0.171875 -1.5 0.28125q-0.8125 0.125 -1.453125 0.125q-2.21875 0 -3.390625 -1.1875q-1.15625 -1.203125 -1.15625 -3.84375l0 -7.734375l-1.640625 0l0 -2.046875l1.640625 0l0 -4.1875l2.453125 0l0 4.1875l5.046875 0l0 2.046875l-5.046875 0l0 6.625q0 1.140625 0.046875 1.796875q0.0625 0.640625 0.375 1.203125q0.28125 0.515625 0.78125 0.765625q0.5 0.234375 1.53125 0.234375q0.59375 0 1.25 -0.171875q0.65625 -0.1875 0.9375 -0.296875l0.125 0l0 2.203125zm5.581848 -16.84375l-2.75 0l0 -2.546875l2.75 0l0 2.546875zm-0.15625 16.96875l-2.4375 0l0 -14.53125l2.4375 0l0 14.53125zm17.236755 -7.265625q0 3.5625 -1.828125 5.625q-1.8125 2.046875 -4.875 2.046875q-3.078125 0 -4.90625 -2.046875q-1.8125 -2.0625 -1.8125 -5.625q0 -3.546875 1.8125 -5.609375q1.828125 -2.0625 4.90625 -2.0625q3.0625 0 4.875 2.0625q1.828125 2.0625 1.828125 5.609375zm-2.515625 0q0 -2.828125 -1.109375 -4.1875q-1.109375 -1.375 -3.078125 -1.375q-1.984375 0 -3.09375 1.375q-1.09375 1.359375 -1.09375 4.1875q0 2.734375 1.109375 4.15625q1.109375 1.40625 3.078125 1.40625q1.953125 0 3.0625 -1.390625q1.125 -1.40625 1.125 -4.171875zm18.459839 7.265625l-2.4375 0l0 -8.28125q0 -1.0 -0.125 -1.875q-0.109375 -0.875 -0.421875 -1.375q-0.328125 -0.546875 -0.953125 -0.8125q-0.609375 -0.265625 -1.578125 -0.265625q-1.0 0 -2.09375 0.5q-1.09375 0.484375 -2.09375 1.25l0 10.859375l-2.453125 0l0 -14.53125l2.453125 0l0 1.609375q1.140625 -0.953125 2.359375 -1.484375q1.234375 -0.53125 2.515625 -0.53125q2.359375 0 3.59375 1.421875q1.234375 1.40625 1.234375 4.078125l0 9.4375z" fill-rule="nonzero"/><path fill="#000000" fill-opacity="0.0" d="m466.81134 399.312l0 0c0 -12.472321 10.110809 -22.58313 22.58313 -22.58313l285.51093 0c5.989441 0 11.7335205 2.3792725 15.968689 6.614441c4.2351685 4.2351685 6.614441 9.979248 6.614441 15.968689l0 90.3298c0 12.472321 -10.11084 22.5831 -22.58313 22.5831l-285.51093 0l0 0c-12.472321 0 -22.58313 -10.110779 -22.58313 -22.5831z" fill-rule="evenodd"/><path stroke="#000000" stroke-width="2.0" stroke-linejoin="round" stroke-linecap="butt" stroke-dasharray="8.0,6.0" d="m466.81134 399.312l0 0c0 -12.472321 10.110809 -22.58313 22.58313 -22.58313l285.51093 0c5.989441 0 11.7335205 2.3792725 15.968689 6.614441c4.2351685 4.2351685 6.614441 9.979248 6.614441 15.968689l0 90.3298c0 12.472321 -10.11084 22.5831 -22.58313 22.5831l-285.51093 0l0 0c-12.472321 0 -22.58313 -10.110779 -22.58313 -22.5831z" fill-rule="evenodd"/><path fill="#000000" fill-opacity="0.0" d="m505.70532 177.76442l0 0c0 -20.885757 16.931274 -37.817017 37.817017 -37.817017l172.05096 0c10.029724 0 19.64862 3.9842834 26.740723 11.07634c7.092041 7.0920715 11.076355 16.710983 11.076355 26.740677l0 151.2636c0 20.885773 -16.931274 37.817017 -37.817078 37.817017l-172.05096 0c-20.885742 0 -37.817017 -16.931244 -37.817017 -37.817017z" fill-rule="evenodd"/><path stroke="#000000" stroke-width="2.0" stroke-linejoin="round" stroke-linecap="butt" stroke-dasharray="8.0,6.0" d="m505.70532 177.76442l0 0c0 -20.885757 16.931274 -37.817017 37.817017 -37.817017l172.05096 0c10.029724 0 19.64862 3.9842834 26.740723 11.07634c7.092041 7.0920715 11.076355 16.710983 11.076355 26.740677l0 151.2636c0 20.885773 -16.931274 37.817017 -37.817078 37.817017l-172.05096 0c-20.885742 0 -37.817017 -16.931244 -37.817017 -37.817017z" fill-rule="evenodd"/><path fill="#000000" fill-opacity="0.0" d="m135.69553 218.06909l0 0c0 -28.516449 23.117126 -51.633575 51.633575 -51.633575l207.06354 0l0 0c13.694092 0 26.827301 5.4399414 36.510468 15.123123c9.6831665 9.6831665 15.123108 22.816376 15.123108 36.510452l0 206.5281c0 28.516449 -23.117126 51.633575 -51.633575 51.633575l-207.06354 0c-28.516449 0 -51.633575 -23.117126 -51.633575 -51.633575z" fill-rule="evenodd"/><path stroke="#000000" stroke-width="2.0" stroke-linejoin="round" stroke-linecap="butt" stroke-dasharray="8.0,6.0" d="m135.69553 218.06909l0 0c0 -28.516449 23.117126 -51.633575 51.633575 -51.633575l207.06354 0l0 0c13.694092 0 26.827301 5.4399414 36.510468 15.123123c9.6831665 9.6831665 15.123108 22.816376 15.123108 36.510452l0 206.5281c0 28.516449 -23.117126 51.633575 -51.633575 51.633575l-207.06354 0c-28.516449 0 -51.633575 -23.117126 -51.633575 -51.633575z" fill-rule="evenodd"/><path fill="#f1faee" d="m206.58737 209.11336l0 0c0 -4.514038 3.6593628 -8.173401 8.173401 -8.173401l54.330383 0c2.1677246 0 4.246643 0.86112976 5.7794495 2.3939362c1.5328064 1.5328064 2.3939514 3.61174 2.3939514 5.7794647l0 32.69258c0 4.514038 -3.6593628 8.173401 -8.173401 8.173401l-54.330383 0c-4.514038 0 -8.173401 -3.6593628 -8.173401 -8.173401z" fill-rule="evenodd"/><path stroke="#000000" stroke-width="2.0" stroke-linejoin="round" stroke-linecap="butt" d="m206.58737 209.11336l0 0c0 -4.514038 3.6593628 -8.173401 8.173401 -8.173401l54.330383 0c2.1677246 0 4.246643 0.86112976 5.7794495 2.3939362c1.5328064 1.5328064 2.3939514 3.61174 2.3939514 5.7794647l0 32.69258c0 4.514038 -3.6593628 8.173401 -8.173401 8.173401l-54.330383 0c-4.514038 0 -8.173401 -3.6593628 -8.173401 -8.173401z" fill-rule="evenodd"/><path fill="#000000" d="m252.01025 236.39964l-3.15625 0l-2.1875 -6.21875l-9.640625 0l-2.1875 6.21875l-3.0 0l8.109375 -22.28125l3.953125 0l8.109375 22.28125zm-6.25 -8.75l-3.90625 -10.953125l-3.921875 10.953125l7.828125 0z" fill-rule="nonzero"/><path fill="#f1faee" d="m180.61435 341.96866l0 0c0 -4.514038 3.6593475 -8.17337 8.173401 -8.17337l76.535095 0c2.1677246 0 4.246643 0.8611145 5.7794495 2.393921c1.5328369 1.5328064 2.3939514 3.6117554 2.3939514 5.7794495l0 32.692596c0 4.514038 -3.6593628 8.173401 -8.173401 8.173401l-76.535095 0c-4.5140533 0 -8.173401 -3.6593628 -8.173401 -8.173401z" fill-rule="evenodd"/><path stroke="#000000" stroke-width="2.0" stroke-linejoin="round" stroke-linecap="butt" d="m180.61435 341.96866l0 0c0 -4.514038 3.6593475 -8.17337 8.173401 -8.17337l76.535095 0c2.1677246 0 4.246643 0.8611145 5.7794495 2.393921c1.5328369 1.5328064 2.3939514 3.6117554 2.3939514 5.7794495l0 32.692596c0 4.514038 -3.6593628 8.173401 -8.173401 8.173401l-76.535095 0c-4.5140533 0 -8.173401 -3.6593628 -8.173401 -8.173401z" fill-rule="evenodd"/><path fill="#000000" d="m216.05734 366.5087q-0.71875 0.3125 -1.296875 0.59375q-0.578125 0.265625 -1.515625 0.5625q-0.796875 0.25 -1.734375 0.421875q-0.921875 0.171875 -2.046875 0.171875q-2.109375 0 -3.84375 -0.578125q-1.71875 -0.59375 -2.984375 -1.859375q-1.25 -1.234375 -1.953125 -3.140625q-0.703125 -1.90625 -0.703125 -4.4375q0 -2.390625 0.671875 -4.28125q0.671875 -1.890625 1.953125 -3.1875q1.234375 -1.265625 2.984375 -1.921875q1.75 -0.671875 3.890625 -0.671875q1.5625 0 3.109375 0.375q1.5625 0.375 3.46875 1.328125l0 3.0625l-0.203125 0q-1.59375 -1.34375 -3.171875 -1.953125q-1.578125 -0.609375 -3.375 -0.609375q-1.46875 0 -2.65625 0.484375q-1.171875 0.46875 -2.09375 1.46875q-0.890625 0.96875 -1.40625 2.46875q-0.5 1.484375 -0.5 3.4375q0 2.046875 0.546875 3.515625q0.5625 1.46875 1.4375 2.390625q0.90625 0.96875 2.125 1.4375q1.21875 0.453125 2.578125 0.453125q1.859375 0 3.484375 -0.640625q1.625 -0.640625 3.046875 -1.90625l0.1875 0l0 3.015625zm20.893768 1.40625l-2.578125 0l0 -16.703125l-5.390625 11.359375l-1.53125 0l-5.34375 -11.359375l0 16.703125l-2.40625 0l0 -19.375l3.515625 0l5.15625 10.78125l5.0 -10.78125l3.578125 0l0 19.375zm17.887054 -13.515625q0 1.28125 -0.453125 2.390625q-0.453125 1.09375 -1.25 1.890625q-1.0 1.015625 -2.375 1.515625q-1.359375 0.5 -3.453125 0.5l-2.5625 0l0 7.21875l-2.578125 0l0 -19.375l5.25 0q1.75 0 2.953125 0.296875q1.21875 0.28125 2.15625 0.90625q1.09375 0.75 1.703125 1.859375q0.609375 1.09375 0.609375 2.796875zm-2.6875 0.0625q0 -1.0 -0.359375 -1.734375q-0.34375 -0.75 -1.046875 -1.21875q-0.625 -0.40625 -1.4375 -0.578125q-0.796875 -0.1875 -2.015625 -0.1875l-2.546875 0l0 7.75l2.171875 0q1.5625 0 2.53125 -0.28125q0.984375 -0.28125 1.59375 -0.890625q0.609375 -0.625 0.859375 -1.3125q0.25 -0.6875 0.25 -1.546875z" fill-rule="nonzero"/><path fill="#f1faee" d="m206.58737 275.5407l0 0c0 -4.514038 3.6593628 -8.17337 8.173401 -8.17337l54.330383 0c2.1677246 0 4.246643 0.8611145 5.7794495 2.393921c1.5328064 1.5328064 2.3939514 3.6117249 2.3939514 5.7794495l0 32.692596c0 4.514038 -3.6593628 8.173401 -8.173401 8.173401l-54.330383 0c-4.514038 0 -8.173401 -3.6593628 -8.173401 -8.173401z" fill-rule="evenodd"/><path stroke="#000000" stroke-width="2.0" stroke-linejoin="round" stroke-linecap="butt" d="m206.58737 275.5407l0 0c0 -4.514038 3.6593628 -8.17337 8.173401 -8.17337l54.330383 0c2.1677246 0 4.246643 0.8611145 5.7794495 2.393921c1.5328064 1.5328064 2.3939514 3.6117249 2.3939514 5.7794495l0 32.692596c0 4.514038 -3.6593628 8.173401 -8.173401 8.173401l-54.330383 0c-4.514038 0 -8.173401 -3.6593628 -8.173401 -8.173401z" fill-rule="evenodd"/><path fill="#000000" d="m251.21469 295.96765q0 1.671875 -0.625 2.9375q-0.625 1.265625 -1.6875 2.09375q-1.265625 0.984375 -2.765625 1.40625q-1.5 0.421875 -3.828125 0.421875l-7.890625 0l0 -22.28125l6.59375 0q2.4375 0 3.640625 0.1875q1.21875 0.171875 2.328125 0.734375q1.234375 0.640625 1.78125 1.65625q0.5625 1.0 0.5625 2.421875q0 1.578125 -0.8125 2.703125q-0.8125 1.109375 -2.15625 1.78125l0 0.125q2.265625 0.453125 3.5625 1.984375q1.296875 1.515625 1.296875 3.828125zm-4.984375 -10.046875q0 -0.796875 -0.265625 -1.34375q-0.265625 -0.5625 -0.859375 -0.90625q-0.703125 -0.40625 -1.71875 -0.5q-1.0 -0.109375 -2.484375 -0.109375l-3.53125 0l0 6.4375l3.84375 0q1.390625 0 2.203125 -0.140625q0.828125 -0.140625 1.53125 -0.59375q0.703125 -0.4375 0.984375 -1.140625q0.296875 -0.71875 0.296875 -1.703125zm1.90625 10.171875q0 -1.34375 -0.40625 -2.140625q-0.40625 -0.796875 -1.46875 -1.34375q-0.71875 -0.375 -1.75 -0.484375q-1.015625 -0.125 -2.484375 -0.125l-4.65625 0l0 8.296875l3.921875 0q1.953125 0 3.1875 -0.203125q1.25 -0.203125 2.046875 -0.734375q0.828125 -0.59375 1.21875 -1.328125q0.390625 -0.75 0.390625 -1.9375z" fill-rule="nonzero"/><path fill="#457b9d" d="m297.8568 209.11336l0 0c0 -4.514038 3.6593323 -8.173401 8.17337 -8.173401l54.330383 0c2.1677246 0 4.2466736 0.86112976 5.77948 2.3939362c1.5328064 1.5328064 2.393921 3.61174 2.393921 5.7794647l0 32.69258c0 4.514038 -3.6593628 8.173401 -8.173401 8.173401l-54.330383 0c-4.514038 0 -8.17337 -3.6593628 -8.17337 -8.173401z" fill-rule="evenodd"/><path stroke="#000000" stroke-width="2.0" stroke-linejoin="round" stroke-linecap="butt" d="m297.8568 209.11336l0 0c0 -4.514038 3.6593323 -8.173401 8.17337 -8.173401l54.330383 0c2.1677246 0 4.2466736 0.86112976 5.77948 2.3939362c1.5328064 1.5328064 2.393921 3.61174 2.393921 5.7794647l0 32.69258c0 4.514038 -3.6593628 8.173401 -8.173401 8.173401l-54.330383 0c-4.514038 0 -8.17337 -3.6593628 -8.17337 -8.173401z" fill-rule="evenodd"/><path fill="#f1faee" d="m340.06168 236.39964l-3.15625 0l-2.1875 -6.21875l-9.640625 0l-2.1875 6.21875l-3.0 0l8.109375 -22.28125l3.953125 0l8.109375 22.28125zm-6.25 -8.75l-3.90625 -10.953125l-3.921875 10.953125l7.828125 0zm13.362671 -14.546875l-4.0625 8.375l-2.0625 0l2.46875 -8.375l3.65625 0z" fill-rule="nonzero"/><path fill="#457b9d" d="m297.8568 275.5407l0 0c0 -4.514038 3.6593323 -8.17337 8.17337 -8.17337l54.330383 0c2.1677246 0 4.2466736 0.8611145 5.77948 2.393921c1.5328064 1.5328064 2.393921 3.6117249 2.393921 5.7794495l0 32.692596c0 4.514038 -3.6593628 8.173401 -8.173401 8.173401l-54.330383 0c-4.514038 0 -8.17337 -3.6593628 -8.17337 -8.173401z" fill-rule="evenodd"/><path stroke="#000000" stroke-width="2.0" stroke-linejoin="round" stroke-linecap="butt" d="m297.8568 275.5407l0 0c0 -4.514038 3.6593323 -8.17337 8.17337 -8.17337l54.330383 0c2.1677246 0 4.2466736 0.8611145 5.77948 2.393921c1.5328064 1.5328064 2.393921 3.6117249 2.393921 5.7794495l0 32.692596c0 4.514038 -3.6593628 8.173401 -8.173401 8.173401l-54.330383 0c-4.514038 0 -8.17337 -3.6593628 -8.17337 -8.173401z" fill-rule="evenodd"/><path fill="#f1faee" d="m338.36768 295.96765q0 1.671875 -0.625 2.9375q-0.625 1.265625 -1.6875 2.09375q-1.265625 0.984375 -2.765625 1.40625q-1.5 0.421875 -3.828125 0.421875l-7.890625 0l0 -22.28125l6.59375 0q2.4375 0 3.640625 0.1875q1.21875 0.171875 2.328125 0.734375q1.234375 0.640625 1.78125 1.65625q0.5625 1.0 0.5625 2.421875q0 1.578125 -0.8125 2.703125q-0.8125 1.109375 -2.15625 1.78125l0 0.125q2.265625 0.453125 3.5625 1.984375q1.296875 1.515625 1.296875 3.828125zm-4.984375 -10.046875q0 -0.796875 -0.265625 -1.34375q-0.265625 -0.5625 -0.859375 -0.90625q-0.703125 -0.40625 -1.71875 -0.5q-1.0 -0.109375 -2.484375 -0.109375l-3.53125 0l0 6.4375l3.84375 0q1.390625 0 2.203125 -0.140625q0.828125 -0.140625 1.53125 -0.59375q0.703125 -0.4375 0.984375 -1.140625q0.296875 -0.71875 0.296875 -1.703125zm1.90625 10.171875q0 -1.34375 -0.40625 -2.140625q-0.40625 -0.796875 -1.46875 -1.34375q-0.71875 -0.375 -1.75 -0.484375q-1.015625 -0.125 -2.484375 -0.125l-4.65625 0l0 8.296875l3.921875 0q1.953125 0 3.1875 -0.203125q1.25 -0.203125 2.046875 -0.734375q0.828125 -0.59375 1.21875 -1.328125q0.390625 -0.75 0.390625 -1.9375zm12.813171 -16.5625l-4.0625 8.375l-2.0625 0l2.46875 -8.375l3.65625 0z" fill-rule="nonzero"/><path fill="#457b9d" d="m302.5432 341.96866l0 0c0 -4.514038 3.6593628 -8.17337 8.173401 -8.17337l72.25165 0c2.1677246 0 4.246643 0.8611145 5.7794495 2.393921c1.5328064 1.5328064 2.3939514 3.6117554 2.3939514 5.7794495l0 32.692596c0 4.514038 -3.6593628 8.173401 -8.173401 8.173401l-72.25165 0c-4.514038 0 -8.173401 -3.6593628 -8.173401 -8.173401z" fill-rule="evenodd"/><path stroke="#000000" stroke-width="2.0" stroke-linejoin="round" stroke-linecap="butt" d="m302.5432 341.96866l0 0c0 -4.514038 3.6593628 -8.17337 8.173401 -8.17337l72.25165 0c2.1677246 0 4.246643 0.8611145 5.7794495 2.393921c1.5328064 1.5328064 2.3939514 3.6117554 2.3939514 5.7794495l0 32.692596c0 4.514038 -3.6593628 8.173401 -8.173401 8.173401l-72.25165 0c-4.514038 0 -8.173401 -3.6593628 -8.173401 -8.173401z" fill-rule="evenodd"/><path fill="#f1faee" d="m332.26517 366.5087q-0.71875 0.3125 -1.296875 0.59375q-0.578125 0.265625 -1.515625 0.5625q-0.796875 0.25 -1.734375 0.421875q-0.921875 0.171875 -2.046875 0.171875q-2.109375 0 -3.84375 -0.578125q-1.71875 -0.59375 -2.984375 -1.859375q-1.25 -1.234375 -1.953125 -3.140625q-0.703125 -1.90625 -0.703125 -4.4375q0 -2.390625 0.671875 -4.28125q0.671875 -1.890625 1.953125 -3.1875q1.234375 -1.265625 2.984375 -1.921875q1.75 -0.671875 3.890625 -0.671875q1.5625 0 3.109375 0.375q1.5625 0.375 3.46875 1.328125l0 3.0625l-0.203125 0q-1.59375 -1.34375 -3.171875 -1.953125q-1.578125 -0.609375 -3.375 -0.609375q-1.46875 0 -2.65625 0.484375q-1.171875 0.46875 -2.09375 1.46875q-0.890625 0.96875 -1.40625 2.46875q-0.5 1.484375 -0.5 3.4375q0 2.046875 0.546875 3.515625q0.5625 1.46875 1.4375 2.390625q0.90625 0.96875 2.125 1.4375q1.21875 0.453125 2.578125 0.453125q1.859375 0 3.484375 -0.640625q1.625 -0.640625 3.046875 -1.90625l0.1875 0l0 3.015625zm20.893768 1.40625l-2.578125 0l0 -16.703125l-5.390625 11.359375l-1.53125 0l-5.34375 -11.359375l0 16.703125l-2.40625 0l0 -19.375l3.515625 0l5.15625 10.78125l5.0 -10.78125l3.578125 0l0 19.375zm17.887054 -13.515625q0 1.28125 -0.453125 2.390625q-0.453125 1.09375 -1.25 1.890625q-1.0 1.015625 -2.375 1.515625q-1.359375 0.5 -3.453125 0.5l-2.5625 0l0 7.21875l-2.578125 0l0 -19.375l5.25 0q1.75 0 2.953125 0.296875q1.21875 0.28125 2.15625 0.90625q1.09375 0.75 1.703125 1.859375q0.609375 1.09375 0.609375 2.796875zm-2.6875 0.0625q0 -1.0 -0.359375 -1.734375q-0.34375 -0.75 -1.046875 -1.21875q-0.625 -0.40625 -1.4375 -0.578125q-0.796875 -0.1875 -2.015625 -0.1875l-2.546875 0l0 7.75l2.171875 0q1.5625 0 2.53125 -0.28125q0.984375 -0.28125 1.59375 -0.890625q0.609375 -0.625 0.859375 -1.3125q0.25 -0.6875 0.25 -1.546875zm10.886932 -6.796875l-3.53125 7.265625l-1.796875 0l2.15625 -7.265625l3.171875 0z" fill-rule="nonzero"/><path fill="#e63946" d="m214.79788 421.4306l0 0c0 -4.514038 3.6593628 -8.17337 8.173401 -8.17337l135.7792 0c2.1677246 0 4.246643 0.8611145 5.7794495 2.393921c1.5328064 1.5328064 2.393921 3.6117249 2.393921 5.7794495l0 32.692596c0 4.514038 -3.6593323 8.173401 -8.17337 8.173401l-135.7792 0c-4.514038 0 -8.173401 -3.6593628 -8.173401 -8.173401z" fill-rule="evenodd"/><path stroke="#000000" stroke-width="2.0" stroke-linejoin="round" stroke-linecap="butt" d="m214.79788 421.4306l0 0c0 -4.514038 3.6593628 -8.17337 8.173401 -8.17337l135.7792 0c2.1677246 0 4.246643 0.8611145 5.7794495 2.393921c1.5328064 1.5328064 2.393921 3.6117249 2.393921 5.7794495l0 32.692596c0 4.514038 -3.6593323 8.173401 -8.17337 8.173401l-135.7792 0c-4.514038 0 -8.173401 -3.6593628 -8.173401 -8.173401z" fill-rule="evenodd"/><path fill="#f1faee" d="m239.37065 448.04752q-2.265625 0 -4.1875 -0.65625q-1.921875 -0.671875 -3.296875 -2.0q-1.390625 -1.328125 -2.15625 -3.3125q-0.75 -1.984375 -0.75 -4.578125q0 -2.421875 0.71875 -4.390625q0.734375 -1.96875 2.109375 -3.375q1.328125 -1.359375 3.28125 -2.09375q1.96875 -0.734375 4.296875 -0.734375q1.28125 0 2.3125 0.140625q1.03125 0.140625 1.90625 0.375q0.921875 0.265625 1.65625 0.59375q0.75 0.3125 1.3125 0.578125l0 4.9375l-0.59375 0q-0.390625 -0.328125 -0.96875 -0.78125q-0.578125 -0.453125 -1.3125 -0.890625q-0.75 -0.4375 -1.625 -0.734375q-0.875 -0.296875 -1.875 -0.296875q-1.109375 0 -2.109375 0.34375q-1.0 0.34375 -1.84375 1.15625q-0.8125 0.78125 -1.3125 2.0625q-0.5 1.28125 -0.5 3.125q0 1.90625 0.53125 3.203125q0.546875 1.28125 1.375 2.015625q0.828125 0.75 1.859375 1.078125q1.03125 0.3125 2.015625 0.3125q0.96875 0 1.90625 -0.28125q0.9375 -0.296875 1.71875 -0.78125q0.671875 -0.390625 1.25 -0.84375q0.578125 -0.453125 0.9375 -0.78125l0.546875 0l0 4.859375q-0.765625 0.34375 -1.46875 0.65625q-0.6875 0.296875 -1.453125 0.515625q-1.0 0.28125 -1.875 0.421875q-0.875 0.15625 -2.40625 0.15625zm26.214828 -0.390625l-4.953125 0l0 -7.609375q0 -0.9375 -0.09375 -1.859375q-0.09375 -0.921875 -0.328125 -1.359375q-0.28125 -0.5 -0.8125 -0.734375q-0.515625 -0.234375 -1.453125 -0.234375q-0.671875 0 -1.375 0.21875q-0.68748474 0.21875 -1.4843597 0.6875l0 10.890625l-4.921875 0l0 -21.28125l4.921875 0l0 7.625q1.3124847 -1.03125 2.5156097 -1.578125q1.21875 -0.546875 2.6875 -0.546875q2.484375 0 3.890625 1.453125q1.40625 1.453125 1.40625 4.328125l0 10.0zm19.65039 -6.765625l-11.265625 0q0.109375 1.796875 1.359375 2.765625q1.265625 0.953125 3.734375 0.953125q1.5625 0 3.015625 -0.5625q1.46875 -0.5625 2.3125 -1.203125l0.546875 0l0 3.953125q-1.671875 0.671875 -3.15625 0.96875q-1.46875 0.296875 -3.25 0.296875q-4.625 0 -7.09375 -2.078125q-2.453125 -2.078125 -2.453125 -5.921875q0 -3.796875 2.328125 -6.015625q2.328125 -2.21875 6.390625 -2.21875q3.75 0 5.640625 1.890625q1.890625 1.890625 1.890625 5.453125l0 1.71875zm-4.90625 -2.890625q-0.03125 -1.546875 -0.765625 -2.3125q-0.71875 -0.78125 -2.25 -0.78125q-1.421875 0 -2.34375 0.734375q-0.90625 0.734375 -1.015625 2.359375l6.375 0zm16.375 10.0625q-2.015625 0 -3.6875 -0.46875q-1.65625 -0.484375 -2.875 -1.484375q-1.21875 -1.0 -1.890625 -2.515625q-0.671875 -1.515625 -0.671875 -3.546875q0 -2.15625 0.71875 -3.703125q0.71875 -1.5625 2.0 -2.59375q1.25 -0.96875 2.875 -1.421875q1.625 -0.453125 3.375 -0.453125q1.578125 0 2.890625 0.34375q1.328125 0.34375 2.484375 0.890625l0 4.203125l-0.703125 0q-0.28125 -0.25 -0.6875 -0.578125q-0.40625 -0.328125 -0.984375 -0.640625q-0.5625 -0.3125 -1.234375 -0.5q-0.671875 -0.203125 -1.5625 -0.203125q-1.96875 0 -3.03125 1.25q-1.046875 1.25 -1.046875 3.40625q0 2.203125 1.078125 3.359375q1.09375 1.140625 3.078125 1.140625q0.9375 0 1.671875 -0.203125q0.75 -0.21875 1.25 -0.5q0.46875 -0.28125 0.8125 -0.578125q0.359375 -0.296875 0.65625 -0.59375l0.703125 0l0 4.203125q-1.15625 0.546875 -2.421875 0.859375q-1.265625 0.328125 -2.796875 0.328125zm24.771484 -0.40625l-5.734375 0l-4.296875 -6.6875l-1.34375 1.625l0 5.0625l-4.921875 0l0 -21.28125l4.921875 0l0 12.703125l5.296875 -6.78125l5.671875 0l-5.515625 6.625l5.921875 8.734375zm17.613281 -6.765625l-11.265625 0q0.109375 1.796875 1.359375 2.765625q1.265625 0.953125 3.734375 0.953125q1.5625 0 3.015625 -0.5625q1.46875 -0.5625 2.3125 -1.203125l0.546875 0l0 3.953125q-1.671875 0.671875 -3.15625 0.96875q-1.46875 0.296875 -3.25 0.296875q-4.625 0 -7.09375 -2.078125q-2.453125 -2.078125 -2.453125 -5.921875q0 -3.796875 2.328125 -6.015625q2.328125 -2.21875 6.390625 -2.21875q3.75 0 5.640625 1.890625q1.890625 1.890625 1.890625 5.453125l0 1.71875zm-4.90625 -2.890625q-0.03125 -1.546875 -0.765625 -2.3125q-0.71875 -0.78125 -2.25 -0.78125q-1.421875 0 -2.34375 0.734375q-0.90625 0.734375 -1.015625 2.359375l6.375 0zm19.50003 -1.015625l-0.4375 0q-0.3125 -0.109375 -1.015625 -0.15625q-0.6875 -0.0625 -1.15625 -0.0625q-1.046875 0 -1.859375 0.140625q-0.8125 0.140625 -1.734375 0.46875l0 10.28125l-4.9219055 0l0 -15.359375l4.9219055 0l0 2.265625q1.625 -1.40625 2.828125 -1.859375q1.203125 -0.453125 2.21875 -0.453125q0.25 0 0.578125 0.015625q0.328125 0.015625 0.578125 0.03125l0 4.6875z" fill-rule="nonzero"/><path fill="#f1faee" d="m548.2279 185.61699l0 0c0 -4.514038 3.6593628 -8.173386 8.173401 -8.173386l54.330383 0c2.1677246 0 4.246643 0.8611145 5.779419 2.3939362c1.5328369 1.5328064 2.393982 3.61174 2.393982 5.7794495l0 32.692596c0 4.514038 -3.6593628 8.173386 -8.173401 8.173386l-54.330383 0c-4.514038 0 -8.173401 -3.6593475 -8.173401 -8.173386z" fill-rule="evenodd"/><path stroke="#000000" stroke-width="2.0" stroke-linejoin="round" stroke-linecap="butt" d="m548.2279 185.61699l0 0c0 -4.514038 3.6593628 -8.173386 8.173401 -8.173386l54.330383 0c2.1677246 0 4.246643 0.8611145 5.779419 2.3939362c1.5328369 1.5328064 2.393982 3.61174 2.393982 5.7794495l0 32.692596c0 4.514038 -3.6593628 8.173386 -8.173401 8.173386l-54.330383 0c-4.514038 0 -8.173401 -3.6593475 -8.173401 -8.173386z" fill-rule="evenodd"/><path fill="#000000" d="m594.0977 213.68329l-3.296875 0l-2.28125 -6.484375l-10.0625 0l-2.28125 6.484375l-3.140625 0l8.46875 -23.265625l4.125 0l8.46875 23.265625zm-6.53125 -9.140625l-4.078125 -11.421875l-4.09375 11.421875l8.171875 0z" fill-rule="nonzero"/><path fill="#f1faee" d="m539.26764 398.9608l0 0c0 -4.514038 3.6593628 -8.17337 8.173401 -8.17337l72.25165 0c2.1677246 0 4.246643 0.8611145 5.77948 2.393921c1.5327759 1.5328064 2.393921 3.6117249 2.393921 5.7794495l0 32.692596c0 4.514038 -3.6593628 8.173401 -8.173401 8.173401l-72.25165 0c-4.514038 0 -8.173401 -3.6593628 -8.173401 -8.173401z" fill-rule="evenodd"/><path stroke="#000000" stroke-width="2.0" stroke-linejoin="round" stroke-linecap="butt" d="m539.26764 398.9608l0 0c0 -4.514038 3.6593628 -8.17337 8.173401 -8.17337l72.25165 0c2.1677246 0 4.246643 0.8611145 5.77948 2.393921c1.5327759 1.5328064 2.393921 3.6117249 2.393921 5.7794495l0 32.692596c0 4.514038 -3.6593628 8.173401 -8.173401 8.173401l-72.25165 0c-4.514038 0 -8.173401 -3.6593628 -8.173401 -8.173401z" fill-rule="evenodd"/><path fill="#000000" d="m572.0034 423.7027q-0.75 0.328125 -1.359375 0.625q-0.609375 0.28125 -1.59375 0.59375q-0.828125 0.265625 -1.8125 0.453125q-0.96875 0.1875 -2.140625 0.1875q-2.21875 0 -4.03125 -0.625q-1.8125 -0.625 -3.15625 -1.953125q-1.3125 -1.296875 -2.046875 -3.296875q-0.734375 -2.0 -0.734375 -4.65625q0 -2.515625 0.703125 -4.5q0.71875 -1.984375 2.046875 -3.34375q1.3125 -1.328125 3.140625 -2.03125q1.84375 -0.703125 4.078125 -0.703125q1.640625 0 3.28125 0.40625q1.640625 0.390625 3.625 1.390625l0 3.21875l-0.203125 0q-1.671875 -1.40625 -3.328125 -2.046875q-1.65625 -0.65625 -3.546875 -0.65625q-1.546875 0 -2.78125 0.5q-1.234375 0.5 -2.203125 1.5625q-0.953125 1.015625 -1.484375 2.59375q-0.515625 1.5625 -0.515625 3.609375q0 2.140625 0.578125 3.6875q0.578125 1.546875 1.5 2.515625q0.953125 1.015625 2.234375 1.5q1.28125 0.484375 2.703125 0.484375q1.953125 0 3.65625 -0.671875q1.71875 -0.671875 3.203125 -2.015625l0.1875 0l0 3.171875zm21.957031 1.484375l-2.703125 0l0 -17.546875l-5.65625 11.9375l-1.609375 0l-5.625 -11.9375l0 17.546875l-2.53125 0l0 -20.359375l3.6875 0l5.4375 11.328125l5.25 -11.328125l3.75 0l0 20.359375zm18.785156 -14.203125q0 1.34375 -0.46875 2.5q-0.46875 1.15625 -1.3125 2.015625q-1.0625 1.046875 -2.5 1.578125q-1.421875 0.515625 -3.609375 0.515625l-2.71875 0l0 7.59375l-2.703125 0l0 -20.359375l5.53125 0q1.828125 0 3.09375 0.3125q1.28125 0.296875 2.265625 0.953125q1.15625 0.78125 1.78125 1.953125q0.640625 1.15625 0.640625 2.9375zm-2.8125 0.0625q0 -1.046875 -0.375 -1.828125q-0.359375 -0.78125 -1.109375 -1.265625q-0.65625 -0.4375 -1.5 -0.609375q-0.84375 -0.1875 -2.125 -0.1875l-2.6875 0l0 8.125l2.28125 0q1.640625 0 2.671875 -0.28125q1.03125 -0.296875 1.671875 -0.9375q0.640625 -0.65625 0.90625 -1.375q0.265625 -0.734375 0.265625 -1.640625z" fill-rule="nonzero"/><path fill="#f1faee" d="m548.2279 252.04436l0 0c0 -4.514038 3.6593628 -8.173386 8.173401 -8.173386l54.330383 0c2.1677246 0 4.246643 0.8611145 5.779419 2.393921c1.5328369 1.5328064 2.393982 3.6117554 2.393982 5.7794647l0 32.69258c0 4.514038 -3.6593628 8.173401 -8.173401 8.173401l-54.330383 0c-4.514038 0 -8.173401 -3.6593628 -8.173401 -8.173401z" fill-rule="evenodd"/><path stroke="#000000" stroke-width="2.0" stroke-linejoin="round" stroke-linecap="butt" d="m548.2279 252.04436l0 0c0 -4.514038 3.6593628 -8.173386 8.173401 -8.173386l54.330383 0c2.1677246 0 4.246643 0.8611145 5.779419 2.393921c1.5328369 1.5328064 2.393982 3.6117554 2.393982 5.7794647l0 32.69258c0 4.514038 -3.6593628 8.173401 -8.173401 8.173401l-54.330383 0c-4.514038 0 -8.173401 -3.6593628 -8.173401 -8.173401z" fill-rule="evenodd"/><path fill="#000000" d="m593.2696 272.9544q0 1.734375 -0.65625 3.0625q-0.65625 1.328125 -1.765625 2.1875q-1.3125 1.03125 -2.890625 1.46875q-1.5625 0.4375 -3.984375 0.4375l-8.25 0l0 -23.265625l6.890625 0q2.546875 0 3.8125 0.1875q1.265625 0.1875 2.421875 0.78125q1.28125 0.671875 1.859375 1.734375q0.578125 1.046875 0.578125 2.515625q0 1.65625 -0.84375 2.828125q-0.84375 1.15625 -2.25 1.859375l0 0.125q2.359375 0.484375 3.71875 2.078125q1.359375 1.578125 1.359375 4.0zm-5.203125 -10.484375q0 -0.84375 -0.28125 -1.421875q-0.28125 -0.578125 -0.90625 -0.9375q-0.734375 -0.421875 -1.78125 -0.515625q-1.046875 -0.109375 -2.59375 -0.109375l-3.6875 0l0 6.71875l4.0 0q1.453125 0 2.3125 -0.140625q0.859375 -0.15625 1.59375 -0.625q0.734375 -0.46875 1.03125 -1.203125q0.3125 -0.75 0.3125 -1.765625zm1.984375 10.609375q0 -1.40625 -0.421875 -2.234375q-0.421875 -0.828125 -1.53125 -1.40625q-0.75 -0.390625 -1.828125 -0.5q-1.0625 -0.125 -2.59375 -0.125l-4.859375 0l0 8.65625l4.09375 0q2.03125 0 3.328125 -0.203125q1.296875 -0.21875 2.125 -0.78125q0.875 -0.609375 1.28125 -1.390625q0.40625 -0.78125 0.40625 -2.015625z" fill-rule="nonzero"/><path fill="#457b9d" d="m639.4973 185.61699l0 0c0 -4.514038 3.6593628 -8.173386 8.173401 -8.173386l54.330383 0c2.1677246 0 4.246643 0.8611145 5.77948 2.3939362c1.5327759 1.5328064 2.393921 3.61174 2.393921 5.7794495l0 32.692596c0 4.514038 -3.6593628 8.173386 -8.173401 8.173386l-54.330383 0c-4.514038 0 -8.173401 -3.6593475 -8.173401 -8.173386z" fill-rule="evenodd"/><path stroke="#000000" stroke-width="2.0" stroke-linejoin="round" stroke-linecap="butt" d="m639.4973 185.61699l0 0c0 -4.514038 3.6593628 -8.173386 8.173401 -8.173386l54.330383 0c2.1677246 0 4.246643 0.8611145 5.77948 2.3939362c1.5327759 1.5328064 2.393921 3.61174 2.393921 5.7794495l0 32.692596c0 4.514038 -3.6593628 8.173386 -8.173401 8.173386l-54.330383 0c-4.514038 0 -8.173401 -3.6593475 -8.173401 -8.173386z" fill-rule="evenodd"/><path fill="#f1faee" d="m682.0078 213.68329l-3.296875 0l-2.28125 -6.484375l-10.0625 0l-2.28125 6.484375l-3.140625 0l8.46875 -23.265625l4.125 0l8.46875 23.265625zm-6.53125 -9.140625l-4.078125 -11.421875l-4.09375 11.421875l8.171875 0zm13.953125 -15.171875l-4.234375 8.734375l-2.15625 0l2.578125 -8.734375l3.8125 0z" fill-rule="nonzero"/><path fill="#457b9d" d="m639.4973 252.04436l0 0c0 -4.514038 3.6593628 -8.173386 8.173401 -8.173386l54.330383 0c2.1677246 0 4.246643 0.8611145 5.77948 2.393921c1.5327759 1.5328064 2.393921 3.6117554 2.393921 5.7794647l0 32.69258c0 4.514038 -3.6593628 8.173401 -8.173401 8.173401l-54.330383 0c-4.514038 0 -8.173401 -3.6593628 -8.173401 -8.173401z" fill-rule="evenodd"/><path stroke="#000000" stroke-width="2.0" stroke-linejoin="round" stroke-linecap="butt" d="m639.4973 252.04436l0 0c0 -4.514038 3.6593628 -8.173386 8.173401 -8.173386l54.330383 0c2.1677246 0 4.246643 0.8611145 5.77948 2.393921c1.5327759 1.5328064 2.393921 3.6117554 2.393921 5.7794647l0 32.69258c0 4.514038 -3.6593628 8.173401 -8.173401 8.173401l-54.330383 0c-4.514038 0 -8.173401 -3.6593628 -8.173401 -8.173401z" fill-rule="evenodd"/><path fill="#f1faee" d="m680.2422 272.9544q0 1.734375 -0.65625 3.0625q-0.65625 1.328125 -1.765625 2.1875q-1.3125 1.03125 -2.890625 1.46875q-1.5625 0.4375 -3.984375 0.4375l-8.25 0l0 -23.265625l6.890625 0q2.546875 0 3.8125 0.1875q1.265625 0.1875 2.421875 0.78125q1.28125 0.671875 1.859375 1.734375q0.578125 1.046875 0.578125 2.515625q0 1.65625 -0.84375 2.828125q-0.84375 1.15625 -2.25 1.859375l0 0.125q2.359375 0.484375 3.71875 2.078125q1.359375 1.578125 1.359375 4.0zm-5.203125 -10.484375q0 -0.84375 -0.28125 -1.421875q-0.28125 -0.578125 -0.90625 -0.9375q-0.734375 -0.421875 -1.78125 -0.515625q-1.046875 -0.109375 -2.59375 -0.109375l-3.6875 0l0 6.71875l4.0 0q1.453125 0 2.3125 -0.140625q0.859375 -0.15625 1.59375 -0.625q0.734375 -0.46875 1.03125 -1.203125q0.3125 -0.75 0.3125 -1.765625zm1.984375 10.609375q0 -1.40625 -0.421875 -2.234375q-0.421875 -0.828125 -1.53125 -1.40625q-0.75 -0.390625 -1.828125 -0.5q-1.0625 -0.125 -2.59375 -0.125l-4.859375 0l0 8.65625l4.09375 0q2.03125 0 3.328125 -0.203125q1.296875 -0.21875 2.125 -0.78125q0.875 -0.609375 1.28125 -1.390625q0.40625 -0.78125 0.40625 -2.015625zm13.375 -17.28125l-4.234375 8.734375l-2.15625 0l2.578125 -8.734375l3.8125 0z" fill-rule="nonzero"/><path fill="#457b9d" d="m639.49603 398.9608l0 0c0 -4.514038 3.6593628 -8.17337 8.173401 -8.17337l86.17291 0c2.1676636 0 4.246643 0.8611145 5.779419 2.393921c1.5328369 1.5328064 2.393921 3.6117249 2.393921 5.7794495l0 32.692596c0 4.514038 -3.6593018 8.173401 -8.17334 8.173401l-86.17291 0c-4.514038 0 -8.173401 -3.6593628 -8.173401 -8.173401z" fill-rule="evenodd"/><path stroke="#000000" stroke-width="2.0" stroke-linejoin="round" stroke-linecap="butt" d="m639.49603 398.9608l0 0c0 -4.514038 3.6593628 -8.17337 8.173401 -8.17337l86.17291 0c2.1676636 0 4.246643 0.8611145 5.779419 2.393921c1.5328369 1.5328064 2.393921 3.6117249 2.393921 5.7794495l0 32.692596c0 4.514038 -3.6593018 8.173401 -8.17334 8.173401l-86.17291 0c-4.514038 0 -8.173401 -3.6593628 -8.173401 -8.173401z" fill-rule="evenodd"/><path fill="#f1faee" d="m675.4326 423.7027q-0.75 0.328125 -1.359375 0.625q-0.609375 0.28125 -1.59375 0.59375q-0.828125 0.265625 -1.8125 0.453125q-0.96875 0.1875 -2.140625 0.1875q-2.21875 0 -4.03125 -0.625q-1.8125 -0.625 -3.15625 -1.953125q-1.3125 -1.296875 -2.046875 -3.296875q-0.734375 -2.0 -0.734375 -4.65625q0 -2.515625 0.703125 -4.5q0.71875 -1.984375 2.046875 -3.34375q1.3125 -1.328125 3.140625 -2.03125q1.84375 -0.703125 4.078125 -0.703125q1.640625 0 3.28125 0.40625q1.640625 0.390625 3.625 1.390625l0 3.21875l-0.203125 0q-1.671875 -1.40625 -3.328125 -2.046875q-1.65625 -0.65625 -3.546875 -0.65625q-1.546875 0 -2.78125 0.5q-1.234375 0.5 -2.203125 1.5625q-0.953125 1.015625 -1.484375 2.59375q-0.515625 1.5625 -0.515625 3.609375q0 2.140625 0.578125 3.6875q0.578125 1.546875 1.5 2.515625q0.953125 1.015625 2.234375 1.5q1.28125 0.484375 2.703125 0.484375q1.953125 0 3.65625 -0.671875q1.71875 -0.671875 3.203125 -2.015625l0.1875 0l0 3.171875zm21.957031 1.484375l-2.703125 0l0 -17.546875l-5.65625 11.9375l-1.609375 0l-5.625 -11.9375l0 17.546875l-2.53125 0l0 -20.359375l3.6875 0l5.4375 11.328125l5.25 -11.328125l3.75 0l0 20.359375zm18.785156 -14.203125q0 1.34375 -0.46875 2.5q-0.46875 1.15625 -1.3125 2.015625q-1.0625 1.046875 -2.5 1.578125q-1.421875 0.515625 -3.609375 0.515625l-2.71875 0l0 7.59375l-2.703125 0l0 -20.359375l5.53125 0q1.828125 0 3.09375 0.3125q1.28125 0.296875 2.265625 0.953125q1.15625 0.78125 1.78125 1.953125q0.640625 1.15625 0.640625 2.9375zm-2.8125 0.0625q0 -1.046875 -0.375 -1.828125q-0.359375 -0.78125 -1.109375 -1.265625q-0.65625 -0.4375 -1.5 -0.609375q-0.84375 -0.1875 -2.125 -0.1875l-2.6875 0l0 8.125l2.28125 0q1.640625 0 2.671875 -0.28125q1.03125 -0.296875 1.671875 -0.9375q0.640625 -0.65625 0.90625 -1.375q0.265625 -0.734375 0.265625 -1.640625zm11.431641 -7.140625l-3.703125 7.65625l-1.890625 0l2.25 -7.65625l3.34375 0z" fill-rule="nonzero"/><path fill="#e63946" d="m550.3543 318.4739l0 0c0 -4.514038 3.6593628 -8.17337 8.173401 -8.17337l147.24377 0c2.1677246 0 4.246643 0.8611145 5.77948 2.393921c1.5327759 1.5328064 2.393921 3.6117554 2.393921 5.7794495l0 32.692596c0 4.514038 -3.6593628 8.173401 -8.173401 8.173401l-147.24377 0c-4.514038 0 -8.173401 -3.6593628 -8.173401 -8.173401z" fill-rule="evenodd"/><path stroke="#000000" stroke-width="2.0" stroke-linejoin="round" stroke-linecap="butt" d="m550.3543 318.4739l0 0c0 -4.514038 3.6593628 -8.17337 8.173401 -8.17337l147.24377 0c2.1677246 0 4.246643 0.8611145 5.77948 2.393921c1.5327759 1.5328064 2.393921 3.6117554 2.393921 5.7794495l0 32.692596c0 4.514038 -3.6593628 8.173401 -8.173401 8.173401l-147.24377 0c-4.514038 0 -8.173401 -3.6593628 -8.173401 -8.173401z" fill-rule="evenodd"/><path fill="#f1faee" d="m580.65936 345.09082q-2.265625 0 -4.1875 -0.65625q-1.921875 -0.671875 -3.296875 -2.0q-1.390625 -1.328125 -2.15625 -3.3125q-0.75 -1.984375 -0.75 -4.578125q0 -2.421875 0.71875 -4.390625q0.734375 -1.96875 2.109375 -3.375q1.328125 -1.359375 3.28125 -2.09375q1.96875 -0.734375 4.296875 -0.734375q1.28125 0 2.3125 0.140625q1.03125 0.140625 1.90625 0.375q0.921875 0.265625 1.65625 0.59375q0.75 0.3125 1.3125 0.578125l0 4.9375l-0.59375 0q-0.390625 -0.328125 -0.96875 -0.78125q-0.578125 -0.453125 -1.3125 -0.890625q-0.75 -0.4375 -1.625 -0.734375q-0.875 -0.296875 -1.875 -0.296875q-1.109375 0 -2.109375 0.34375q-1.0 0.34375 -1.84375 1.15625q-0.8125 0.78125 -1.3125 2.0625q-0.5 1.28125 -0.5 3.125q0 1.90625 0.53125 3.203125q0.546875 1.28125 1.375 2.015625q0.828125 0.75 1.859375 1.078125q1.03125 0.3125 2.015625 0.3125q0.96875 0 1.90625 -0.28125q0.9375 -0.296875 1.71875 -0.78125q0.671875 -0.390625 1.25 -0.84375q0.578125 -0.453125 0.9375 -0.78125l0.546875 0l0 4.859375q-0.765625 0.34375 -1.46875 0.65625q-0.6875 0.296875 -1.453125 0.515625q-1.0 0.28125 -1.875 0.421875q-0.875 0.15625 -2.40625 0.15625zm26.214844 -0.390625l-4.953125 0l0 -7.609375q0 -0.9375 -0.09375 -1.859375q-0.09375 -0.921875 -0.328125 -1.359375q-0.28125 -0.5 -0.8125 -0.734375q-0.515625 -0.234375 -1.453125 -0.234375q-0.671875 0 -1.375 0.21875q-0.6875 0.21875 -1.484375 0.6875l0 10.890625l-4.921875 0l0 -21.28125l4.921875 0l0 7.625q1.3125 -1.03125 2.515625 -1.578125q1.21875 -0.546875 2.6875 -0.546875q2.484375 0 3.890625 1.453125q1.40625 1.453125 1.40625 4.328125l0 10.0zm19.65039 -6.765625l-11.265625 0q0.109375 1.796875 1.359375 2.765625q1.265625 0.953125 3.734375 0.953125q1.5625 0 3.015625 -0.5625q1.46875 -0.5625 2.3125 -1.203125l0.546875 0l0 3.953125q-1.671875 0.671875 -3.15625 0.96875q-1.46875 0.296875 -3.25 0.296875q-4.625 0 -7.09375 -2.078125q-2.453125 -2.078125 -2.453125 -5.921875q0 -3.796875 2.328125 -6.015625q2.328125 -2.21875 6.390625 -2.21875q3.75 0 5.640625 1.890625q1.890625 1.890625 1.890625 5.453125l0 1.71875zm-4.90625 -2.890625q-0.03125 -1.546875 -0.765625 -2.3125q-0.71875 -0.78125 -2.25 -0.78125q-1.421875 0 -2.34375 0.734375q-0.90625 0.734375 -1.015625 2.359375l6.375 0zm16.375 10.0625q-2.015625 0 -3.6875 -0.46875q-1.65625 -0.484375 -2.875 -1.484375q-1.21875 -1.0 -1.890625 -2.515625q-0.671875 -1.515625 -0.671875 -3.546875q0 -2.15625 0.71875 -3.703125q0.71875 -1.5625 2.0 -2.59375q1.25 -0.96875 2.875 -1.421875q1.625 -0.453125 3.375 -0.453125q1.578125 0 2.890625 0.34375q1.328125 0.34375 2.484375 0.890625l0 4.203125l-0.703125 0q-0.28125 -0.25 -0.6875 -0.578125q-0.40625 -0.328125 -0.984375 -0.640625q-0.5625 -0.3125 -1.234375 -0.5q-0.671875 -0.203125 -1.5625 -0.203125q-1.96875 0 -3.03125 1.25q-1.046875 1.25 -1.046875 3.40625q0 2.203125 1.078125 3.359375q1.09375 1.140625 3.078125 1.140625q0.9375 0 1.671875 -0.203125q0.75 -0.21875 1.25 -0.5q0.46875 -0.28125 0.8125 -0.578125q0.359375 -0.296875 0.65625 -0.59375l0.703125 0l0 4.203125q-1.15625 0.546875 -2.421875 0.859375q-1.265625 0.328125 -2.796875 0.328125zm24.771484 -0.40625l-5.734375 0l-4.296875 -6.6875l-1.34375 1.625l0 5.0625l-4.921875 0l0 -21.28125l4.921875 0l0 12.703125l5.296875 -6.78125l5.671875 0l-5.515625 6.625l5.921875 8.734375zm17.613281 -6.765625l-11.265625 0q0.109375 1.796875 1.359375 2.765625q1.265625 0.953125 3.734375 0.953125q1.5625 0 3.015625 -0.5625q1.46875 -0.5625 2.3125 -1.203125l0.546875 0l0 3.953125q-1.671875 0.671875 -3.15625 0.96875q-1.46875 0.296875 -3.25 0.296875q-4.625 0 -7.09375 -2.078125q-2.453125 -2.078125 -2.453125 -5.921875q0 -3.796875 2.328125 -6.015625q2.328125 -2.21875 6.390625 -2.21875q3.75 0 5.640625 1.890625q1.890625 1.890625 1.890625 5.453125l0 1.71875zm-4.90625 -2.890625q-0.03125 -1.546875 -0.765625 -2.3125q-0.71875 -0.78125 -2.25 -0.78125q-1.421875 0 -2.34375 0.734375q-0.90625 0.734375 -1.015625 2.359375l6.375 0zm19.5 -1.015625l-0.4375 0q-0.3125 -0.109375 -1.015625 -0.15625q-0.6875 -0.0625 -1.15625 -0.0625q-1.046875 0 -1.859375 0.140625q-0.8125 0.140625 -1.734375 0.46875l0 10.28125l-4.921875 0l0 -15.359375l4.921875 0l0 2.265625q1.625 -1.40625 2.828125 -1.859375q1.203125 -0.453125 2.21875 -0.453125q0.25 0 0.578125 0.015625q0.328125 0.015625 0.578125 0.03125l0 4.6875z" fill-rule="nonzero"/><path fill="#000000" fill-opacity="0.0" d="m583.56647 226.48297l0 17.385834" fill-rule="evenodd"/><path stroke="#000000" stroke-width="2.0" stroke-linejoin="round" stroke-linecap="butt" d="m583.56647 226.48299l0 5.3858185" fill-rule="evenodd"/><path fill="#000000" stroke="#000000" stroke-width="2.0" stroke-linecap="butt" d="m580.263 231.8688l3.3034668 9.076202l3.3034668 -9.076202z" fill-rule="evenodd"/><path fill="#000000" fill-opacity="0.0" d="m674.83594 226.48297l0 17.385834" fill-rule="evenodd"/><path stroke="#000000" stroke-width="2.0" stroke-linejoin="round" stroke-linecap="butt" d="m674.83594 226.48299l0 5.3858185" fill-rule="evenodd"/><path fill="#000000" stroke="#000000" stroke-width="2.0" stroke-linecap="butt" d="m671.5325 231.8688l3.3034668 9.076202l3.3034668 -9.076202z" fill-rule="evenodd"/><path fill="#000000" fill-opacity="0.0" d="m583.56647 292.91034l48.59845 17.385834" fill-rule="evenodd"/><path stroke="#000000" stroke-width="2.0" stroke-linejoin="round" stroke-linecap="butt" d="m583.56647 292.91034l37.299683 13.34375" fill-rule="evenodd"/><path fill="#000000" stroke="#000000" stroke-width="2.0" stroke-linecap="butt" d="m619.7534 309.3645l9.658569 -0.05319214l-7.4331055 -6.167633z" fill-rule="evenodd"/><path fill="#000000" fill-opacity="0.0" d="m674.83594 292.91034l-42.677185 17.385834" fill-rule="evenodd"/><path stroke="#000000" stroke-width="2.0" stroke-linejoin="round" stroke-linecap="butt" d="m674.83594 292.91034l-31.563965 12.8585205" fill-rule="evenodd"/><path fill="#000000" stroke="#000000" stroke-width="2.0" stroke-linecap="butt" d="m642.02563 302.7095l-7.1591187 6.4835815l9.651794 -0.36489868z" fill-rule="evenodd"/><path fill="#000000" fill-opacity="0.0" d="m632.1496 359.3399l-48.59839 31.433075" fill-rule="evenodd"/><path stroke="#000000" stroke-width="2.0" stroke-linejoin="round" stroke-linecap="butt" d="m632.1496 359.3399l-38.52234 24.915955" fill-rule="evenodd"/><path fill="#000000" stroke="#000000" stroke-width="2.0" stroke-linecap="butt" d="m591.8331 381.48203l-5.8269043 7.7030334l9.4151 -2.1553955z" fill-rule="evenodd"/><path fill="#000000" fill-opacity="0.0" d="m632.1496 359.3399l58.614197 31.433075" fill-rule="evenodd"/><path stroke="#000000" stroke-width="2.0" stroke-linejoin="round" stroke-linecap="butt" d="m632.1496 359.3399l48.03888 25.76184" fill-rule="evenodd"/><path fill="#000000" stroke="#000000" stroke-width="2.0" stroke-linecap="butt" d="m678.62726 388.013l9.559814 1.3781738l-6.437378 -7.200714z" fill-rule="evenodd"/><path fill="#000000" fill-opacity="0.0" d="m241.92596 249.97934l0 17.385834" fill-rule="evenodd"/><path stroke="#000000" stroke-width="2.0" stroke-linejoin="round" stroke-linecap="butt" d="m241.92595 249.97932l0 5.3858337" fill-rule="evenodd"/><path fill="#000000" stroke="#000000" stroke-width="2.0" stroke-linecap="butt" d="m238.6225 255.36516l3.3034515 9.076187l3.3034668 -9.076187z" fill-rule="evenodd"/><path fill="#000000" fill-opacity="0.0" d="m333.19537 249.9815l0 17.385834" fill-rule="evenodd"/><path stroke="#000000" stroke-width="2.0" stroke-linejoin="round" stroke-linecap="butt" d="m333.1954 249.9815l0 5.3858185" fill-rule="evenodd"/><path fill="#000000" stroke="#000000" stroke-width="2.0" stroke-linecap="butt" d="m329.89194 255.36732l3.3034668 9.076187l3.3034668 -9.076187z" fill-rule="evenodd"/><path fill="#000000" fill-opacity="0.0" d="m241.92596 316.4067l-14.86615 17.385803" fill-rule="evenodd"/><path stroke="#000000" stroke-width="2.0" stroke-linejoin="round" stroke-linecap="butt" d="m241.92595 316.4067l-7.0675354 8.265411" fill-rule="evenodd"/><path fill="#000000" stroke="#000000" stroke-width="2.0" stroke-linecap="butt" d="m232.34767 322.52527l-3.3877258 9.045074l8.40921 -4.751343z" fill-rule="evenodd"/><path fill="#000000" fill-opacity="0.0" d="m333.19537 316.4067l13.637817 17.385803" fill-rule="evenodd"/><path stroke="#000000" stroke-width="2.0" stroke-linejoin="round" stroke-linecap="butt" d="m333.1954 316.4067l6.231476 7.9440613" fill-rule="evenodd"/><path fill="#000000" stroke="#000000" stroke-width="2.0" stroke-linecap="butt" d="m336.82767 326.38965l8.200958 5.1023865l-3.002533 -9.180145z" fill-rule="evenodd"/><path fill="#000000" fill-opacity="0.0" d="m227.0553 382.83466l63.811035 30.425201" fill-rule="evenodd"/><path stroke="#000000" stroke-width="2.0" stroke-linejoin="round" stroke-linecap="butt" d="m227.0553 382.83466l52.97928 25.26056" fill-rule="evenodd"/><path fill="#000000" stroke="#000000" stroke-width="2.0" stroke-linecap="butt" d="m278.61282 411.07712l9.614349 0.92437744l-6.7708435 -6.8881226z" fill-rule="evenodd"/><path fill="#000000" fill-opacity="0.0" d="m346.84244 382.83466l-55.968506 30.425201" fill-rule="evenodd"/><path stroke="#000000" stroke-width="2.0" stroke-linejoin="round" stroke-linecap="butt" d="m346.84244 382.83466l-45.4256 24.69394" fill-rule="evenodd"/><path fill="#000000" stroke="#000000" stroke-width="2.0" stroke-linecap="butt" d="m299.83908 404.62625l-6.3963623 7.2371826l9.551849 -1.4324951z" fill-rule="evenodd"/><path fill="#e63946" d="m550.35425 465.3781l0 0c0 -4.514038 3.6593628 -8.173401 8.173401 -8.173401l147.24377 0c2.1677246 0 4.246643 0.861145 5.77948 2.3939514c1.5327759 1.5328064 2.393921 3.6117249 2.393921 5.7794495l0 32.692596c0 4.514038 -3.6593628 8.17337 -8.173401 8.17337l-147.24377 0c-4.514038 0 -8.173401 -3.6593323 -8.173401 -8.17337z" fill-rule="evenodd"/><path stroke="#000000" stroke-width="2.0" stroke-linejoin="round" stroke-linecap="butt" d="m550.35425 465.3781l0 0c0 -4.514038 3.6593628 -8.173401 8.173401 -8.173401l147.24377 0c2.1677246 0 4.246643 0.861145 5.77948 2.3939514c1.5327759 1.5328064 2.393921 3.6117249 2.393921 5.7794495l0 32.692596c0 4.514038 -3.6593628 8.17337 -8.173401 8.17337l-147.24377 0c-4.514038 0 -8.173401 -3.6593323 -8.173401 -8.17337z" fill-rule="evenodd"/><path fill="#f1faee" d="m576.01086 491.99503q-2.265625 0 -4.1875 -0.65625q-1.921875 -0.671875 -3.296875 -2.0q-1.390625 -1.328125 -2.15625 -3.3125q-0.75 -1.984375 -0.75 -4.578125q0 -2.421875 0.71875 -4.390625q0.734375 -1.96875 2.109375 -3.375q1.328125 -1.359375 3.28125 -2.09375q1.96875 -0.734375 4.296875 -0.734375q1.28125 0 2.3125 0.140625q1.03125 0.140625 1.90625 0.375q0.921875 0.265625 1.65625 0.59375q0.75 0.3125 1.3125 0.578125l0 4.9375l-0.59375 0q-0.390625 -0.328125 -0.96875 -0.78125q-0.578125 -0.453125 -1.3125 -0.890625q-0.75 -0.4375 -1.625 -0.734375q-0.875 -0.296875 -1.875 -0.296875q-1.109375 0 -2.109375 0.34375q-1.0 0.34375 -1.84375 1.15625q-0.8125 0.78125 -1.3125 2.0625q-0.5 1.28125 -0.5 3.125q0 1.90625 0.53125 3.203125q0.546875 1.28125 1.375 2.015625q0.828125 0.75 1.859375 1.078125q1.03125 0.3125 2.015625 0.3125q0.96875 0 1.90625 -0.28125q0.9375 -0.296875 1.71875 -0.78125q0.671875 -0.390625 1.25 -0.84375q0.578125 -0.453125 0.9375 -0.78125l0.546875 0l0 4.859375q-0.765625 0.34375 -1.46875 0.65625q-0.6875 0.296875 -1.453125 0.515625q-1.0 0.28125 -1.875 0.421875q-0.875 0.15625 -2.40625 0.15625zm26.214844 -0.390625l-4.953125 0l0 -7.609375q0 -0.9375 -0.09375 -1.859375q-0.09375 -0.921875 -0.328125 -1.359375q-0.28125 -0.5 -0.8125 -0.734375q-0.515625 -0.234375 -1.453125 -0.234375q-0.671875 0 -1.375 0.21875q-0.6875 0.21875 -1.484375 0.6875l0 10.890625l-4.921875 0l0 -21.28125l4.921875 0l0 7.625q1.3125 -1.03125 2.515625 -1.578125q1.21875 -0.546875 2.6875 -0.546875q2.484375 0 3.890625 1.453125q1.40625 1.453125 1.40625 4.328125l0 10.0zm19.65039 -6.765625l-11.265625 0q0.109375 1.796875 1.359375 2.765625q1.265625 0.953125 3.734375 0.953125q1.5625 0 3.015625 -0.5625q1.46875 -0.5625 2.3125 -1.203125l0.546875 0l0 3.953125q-1.671875 0.671875 -3.15625 0.96875q-1.46875 0.296875 -3.25 0.296875q-4.625 0 -7.09375 -2.078125q-2.453125 -2.078125 -2.453125 -5.921875q0 -3.796875 2.328125 -6.015625q2.328125 -2.21875 6.390625 -2.21875q3.75 0 5.640625 1.890625q1.890625 1.890625 1.890625 5.453125l0 1.71875zm-4.90625 -2.890625q-0.03125 -1.546875 -0.765625 -2.3125q-0.71875 -0.78125 -2.25 -0.78125q-1.421875 0 -2.34375 0.734375q-0.90625 0.734375 -1.015625 2.359375l6.375 0zm16.375 10.0625q-2.015625 0 -3.6875 -0.46875q-1.65625 -0.484375 -2.875 -1.484375q-1.21875 -1.0 -1.890625 -2.515625q-0.671875 -1.515625 -0.671875 -3.546875q0 -2.15625 0.71875 -3.703125q0.71875 -1.5625 2.0 -2.59375q1.25 -0.96875 2.875 -1.421875q1.625 -0.453125 3.375 -0.453125q1.578125 0 2.890625 0.34375q1.328125 0.34375 2.484375 0.890625l0 4.203125l-0.703125 0q-0.28125 -0.25 -0.6875 -0.578125q-0.40625 -0.328125 -0.984375 -0.640625q-0.5625 -0.3125 -1.234375 -0.5q-0.671875 -0.203125 -1.5625 -0.203125q-1.96875 0 -3.03125 1.25q-1.046875 1.25 -1.046875 3.40625q0 2.203125 1.078125 3.359375q1.09375 1.140625 3.078125 1.140625q0.9375 0 1.671875 -0.203125q0.75 -0.21875 1.25 -0.5q0.46875 -0.28125 0.8125 -0.578125q0.359375 -0.296875 0.65625 -0.59375l0.703125 0l0 4.203125q-1.15625 0.546875 -2.421875 0.859375q-1.265625 0.328125 -2.796875 0.328125zm24.771484 -0.40625l-5.734375 0l-4.296875 -6.6875l-1.34375 1.625l0 5.0625l-4.921875 0l0 -21.28125l4.921875 0l0 12.703125l5.296875 -6.78125l5.671875 0l-5.515625 6.625l5.921875 8.734375zm17.613281 -6.765625l-11.265625 0q0.109375 1.796875 1.359375 2.765625q1.265625 0.953125 3.734375 0.953125q1.5625 0 3.015625 -0.5625q1.46875 -0.5625 2.3125 -1.203125l0.546875 0l0 3.953125q-1.671875 0.671875 -3.15625 0.96875q-1.46875 0.296875 -3.25 0.296875q-4.625 0 -7.09375 -2.078125q-2.453125 -2.078125 -2.453125 -5.921875q0 -3.796875 2.328125 -6.015625q2.328125 -2.21875 6.390625 -2.21875q3.75 0 5.640625 1.890625q1.890625 1.890625 1.890625 5.453125l0 1.71875zm-4.90625 -2.890625q-0.03125 -1.546875 -0.765625 -2.3125q-0.71875 -0.78125 -2.25 -0.78125q-1.421875 0 -2.34375 0.734375q-0.90625 0.734375 -1.015625 2.359375l6.375 0zm19.5 -1.015625l-0.4375 0q-0.3125 -0.109375 -1.015625 -0.15625q-0.6875 -0.0625 -1.15625 -0.0625q-1.046875 0 -1.859375 0.140625q-0.8125 0.140625 -1.734375 0.46875l0 10.28125l-4.921875 0l0 -15.359375l4.921875 0l0 2.265625q1.625 -1.40625 2.828125 -1.859375q1.203125 -0.453125 2.21875 -0.453125q0.25 0 0.578125 0.015625q0.328125 0.015625 0.578125 0.03125l0 4.6875zm9.324219 -10.609375l-3.984375 8.0625l-3.1875 0l2.140625 -8.0625l5.03125 0z" fill-rule="nonzero"/><path fill="#000000" fill-opacity="0.0" d="m583.5669 439.82678l48.566895 17.385803" fill-rule="evenodd"/><path stroke="#000000" stroke-width="2.0" stroke-linejoin="round" stroke-linecap="butt" d="m583.5669 439.82678l37.269043 13.341431" fill-rule="evenodd"/><path fill="#000000" stroke="#000000" stroke-width="2.0" stroke-linecap="butt" d="m619.72253 456.2784l9.658569 -0.051239014l-7.4318237 -6.169159z" fill-rule="evenodd"/><path fill="#000000" fill-opacity="0.0" d="m690.75586 439.82678l-58.614197 17.385803" fill-rule="evenodd"/><path stroke="#000000" stroke-width="2.0" stroke-linejoin="round" stroke-linecap="butt" d="m690.7559 439.82678l-47.10962 13.973389" fill-rule="evenodd"/><path fill="#000000" stroke="#000000" stroke-width="2.0" stroke-linecap="butt" d="m642.70685 450.6331l-7.762085 5.7480774l9.64093 0.5860901z" fill-rule="evenodd"/><path fill="#000000" fill-opacity="0.0" d="m150.7872 160.81084l122.70865 0l0 51.716537l-122.70865 0z" fill-rule="evenodd"/><path fill="#000000" d="m178.8497 189.47334q0 1.40625 -0.578125 2.515625q-0.5625 1.109375 -1.546875 1.828125q-1.15625 0.859375 -2.53125 1.234375q-1.359375 0.359375 -3.46875 0.359375l-8.46875 0l0 -19.375l7.53125 0q2.34375 0 3.421875 0.15625q1.09375 0.15625 2.15625 0.6875q1.109375 0.5625 1.640625 1.5q0.546875 0.9375 0.546875 2.15625q0 1.40625 -0.75 2.484375q-0.734375 1.0625 -2.09375 1.671875l0 0.09375q1.90625 0.375 3.015625 1.5625q1.125 1.1875 1.125 3.125zm-6.40625 -7.96875q0 -0.46875 -0.25 -0.953125q-0.234375 -0.484375 -0.84375 -0.71875q-0.546875 -0.203125 -1.359375 -0.21875q-0.8125 -0.03125 -2.296875 -0.03125l-0.46875 0l0 4.09375l0.78125 0q1.1875 0 2.015625 -0.03125q0.84375 -0.046875 1.328125 -0.265625q0.671875 -0.296875 0.875 -0.765625q0.21875 -0.484375 0.21875 -1.109375zm1.21875 7.890625q0 -0.921875 -0.359375 -1.421875q-0.359375 -0.5 -1.21875 -0.75q-0.578125 -0.171875 -1.609375 -0.171875q-1.03125 -0.015625 -2.15625 -0.015625l-1.09375 0l0 4.828125l0.375 0q2.109375 0 3.015625 -0.015625q0.90625 -0.015625 1.6875 -0.34375q0.78125 -0.328125 1.0625 -0.859375q0.296875 -0.546875 0.296875 -1.25zm25.492065 0.078125q0 1.40625 -0.578125 2.515625q-0.5625 1.109375 -1.546875 1.828125q-1.15625 0.859375 -2.53125 1.234375q-1.359375 0.359375 -3.46875 0.359375l-8.46875 0l0 -19.375l7.53125 0q2.34375 0 3.421875 0.15625q1.09375 0.15625 2.15625 0.6875q1.109375 0.5625 1.640625 1.5q0.546875 0.9375 0.546875 2.15625q0 1.40625 -0.75 2.484375q-0.734375 1.0625 -2.09375 1.671875l0 0.09375q1.90625 0.375 3.015625 1.5625q1.125 1.1875 1.125 3.125zm-6.40625 -7.96875q0 -0.46875 -0.25 -0.953125q-0.234375 -0.484375 -0.84375 -0.71875q-0.546875 -0.203125 -1.359375 -0.21875q-0.8125 -0.03125 -2.296875 -0.03125l-0.46875 0l0 4.09375l0.78125 0q1.1875 0 2.015625 -0.03125q0.84375 -0.046875 1.328125 -0.265625q0.671875 -0.296875 0.875 -0.765625q0.21875 -0.484375 0.21875 -1.109375zm1.21875 7.890625q0 -0.921875 -0.359375 -1.421875q-0.359375 -0.5 -1.21875 -0.75q-0.578125 -0.171875 -1.609375 -0.171875q-1.03125 -0.015625 -2.15625 -0.015625l-1.09375 0l0 4.828125l0.375 0q2.109375 0 3.015625 -0.015625q0.90625 -0.015625 1.6875 -0.34375q0.78125 -0.328125 1.0625 -0.859375q0.296875 -0.546875 0.296875 -1.25zm23.929565 -3.6875q0 2.453125 -0.453125 4.390625q-0.4375 1.921875 -1.375 3.171875q-0.96875 1.25 -2.484375 1.90625q-1.5 0.640625 -3.71875 0.640625q-2.171875 0 -3.703125 -0.640625q-1.53125 -0.65625 -2.484375 -1.9375q-0.96875 -1.28125 -1.40625 -3.171875q-0.421875 -1.890625 -0.421875 -4.34375q0 -2.515625 0.4375 -4.375q0.453125 -1.875 1.421875 -3.15625q0.953125 -1.28125 2.484375 -1.90625q1.546875 -0.640625 3.671875 -0.640625q2.234375 0 3.734375 0.65625q1.515625 0.65625 2.484375 1.953125q0.953125 1.28125 1.375 3.15625q0.4375 1.859375 0.4375 4.296875zm-5.046875 0q0 -3.515625 -0.6875 -5.0q-0.6875 -1.484375 -2.296875 -1.484375q-1.59375 0 -2.28125 1.484375q-0.6875 1.484375 -0.6875 5.03125q0 3.453125 0.703125 4.984375q0.703125 1.515625 2.265625 1.515625q1.578125 0 2.28125 -1.515625q0.703125 -1.53125 0.703125 -5.015625z" fill-rule="nonzero"/><path fill="#000000" d="m224.76913 182.41084l3.203125 0l0 3.109375l-3.203125 0l0 -3.109375zm0 9.578125l3.203125 0l0 3.109375l-3.203125 0l0 -3.109375z" fill-rule="nonzero"/><path fill="#000000" fill-opacity="0.0" d="m519.15735 137.97627l102.519714 0l0 51.716537l-102.519714 0z" fill-rule="evenodd"/><path fill="#000000" d="m547.21985 166.63876q0 1.40625 -0.578125 2.515625q-0.5625 1.109375 -1.546875 1.828125q-1.15625 0.859375 -2.53125 1.234375q-1.359375 0.359375 -3.46875 0.359375l-8.46875 0l0 -19.375l7.53125 0q2.34375 0 3.421875 0.15625q1.09375 0.15625 2.15625 0.6875q1.109375 0.5625 1.640625 1.5q0.546875 0.9375 0.546875 2.15625q0 1.40625 -0.75 2.484375q-0.734375 1.0625 -2.09375 1.671875l0 0.09375q1.90625 0.375 3.015625 1.5625q1.125 1.1875 1.125 3.125zm-6.40625 -7.96875q0 -0.46875 -0.25 -0.953125q-0.234375 -0.484375 -0.84375 -0.71875q-0.546875 -0.203125 -1.359375 -0.21875q-0.8125 -0.03125 -2.296875 -0.03125l-0.46875 0l0 4.09375l0.78125 0q1.1875 0 2.015625 -0.03125q0.84375 -0.046875 1.328125 -0.265625q0.671875 -0.296875 0.875 -0.765625q0.21875 -0.484375 0.21875 -1.109375zm1.21875 7.890625q0 -0.921875 -0.359375 -1.421875q-0.359375 -0.5 -1.21875 -0.75q-0.578125 -0.171875 -1.609375 -0.171875q-1.03125 -0.015625 -2.15625 -0.015625l-1.09375 0l0 4.828125l0.375 0q2.109375 0 3.015625 -0.015625q0.90625 -0.015625 1.6875 -0.34375q0.78125 -0.328125 1.0625 -0.859375q0.296875 -0.546875 0.296875 -1.25zm25.492065 0.078125q0 1.40625 -0.578125 2.515625q-0.5625 1.109375 -1.546875 1.828125q-1.15625 0.859375 -2.53125 1.234375q-1.359375 0.359375 -3.46875 0.359375l-8.46875 0l0 -19.375l7.53125 0q2.34375 0 3.421875 0.15625q1.09375 0.15625 2.15625 0.6875q1.109375 0.5625 1.640625 1.5q0.546875 0.9375 0.546875 2.15625q0 1.40625 -0.75 2.484375q-0.734375 1.0625 -2.09375 1.671875l0 0.09375q1.90625 0.375 3.015625 1.5625q1.125 1.1875 1.125 3.125zm-6.40625 -7.96875q0 -0.46875 -0.25 -0.953125q-0.234375 -0.484375 -0.84375 -0.71875q-0.546875 -0.203125 -1.359375 -0.21875q-0.8125 -0.03125 -2.296875 -0.03125l-0.46875 0l0 4.09375l0.78125 0q1.1875 0 2.015625 -0.03125q0.84375 -0.046875 1.328125 -0.265625q0.671875 -0.296875 0.875 -0.765625q0.21875 -0.484375 0.21875 -1.109375zm1.21875 7.890625q0 -0.921875 -0.359375 -1.421875q-0.359375 -0.5 -1.21875 -0.75q-0.578125 -0.171875 -1.609375 -0.171875q-1.03125 -0.015625 -2.15625 -0.015625l-1.09375 0l0 4.828125l0.375 0q2.109375 0 3.015625 -0.015625q0.90625 -0.015625 1.6875 -0.34375q0.78125 -0.328125 1.0625 -0.859375q0.296875 -0.546875 0.296875 -1.25zm23.929565 -3.6875q0 2.453125 -0.453125 4.390625q-0.4375 1.921875 -1.375 3.171875q-0.96875 1.25 -2.484375 1.90625q-1.5 0.640625 -3.71875 0.640625q-2.171875 0 -3.703125 -0.640625q-1.53125 -0.65625 -2.484375 -1.9375q-0.96875 -1.28125 -1.40625 -3.171875q-0.421875 -1.890625 -0.421875 -4.34375q0 -2.515625 0.4375 -4.375q0.453125 -1.875 1.421875 -3.15625q0.953125 -1.28125 2.484375 -1.90625q1.546875 -0.640625 3.671875 -0.640625q2.234375 0 3.734375 0.65625q1.515625 0.65625 2.484375 1.953125q0.953125 1.28125 1.375 3.15625q0.4375 1.859375 0.4375 4.296875zm-5.046875 0q0 -3.515625 -0.6875 -5.0q-0.6875 -1.484375 -2.296875 -1.484375q-1.59375 0 -2.28125 1.484375q-0.6875 1.484375 -0.6875 5.03125q0 3.453125 0.703125 4.984375q0.703125 1.515625 2.265625 1.515625q1.578125 0 2.28125 -1.515625q0.703125 -1.53125 0.703125 -5.015625zm14.294678 0.203125l-4.875 0l0 -5.109375l4.875 0l0 5.109375zm0 9.5l-4.875 0l0 -5.109375l4.875 0l0 5.109375z" fill-rule="nonzero"/><path fill="#000000" fill-opacity="0.0" d="m460.8586 377.47693l122.70865 0l0 51.716522l-122.70865 0z" fill-rule="evenodd"/><path fill="#000000" d="m488.9211 406.1394q0 1.40625 -0.578125 2.515625q-0.5625 1.109375 -1.546875 1.828125q-1.15625 0.859375 -2.53125 1.234375q-1.359375 0.359375 -3.46875 0.359375l-8.46875 0l0 -19.375l7.53125 0q2.34375 0 3.421875 0.15625q1.09375 0.15625 2.15625 0.6875q1.109375 0.5625 1.640625 1.5q0.546875 0.9375 0.546875 2.15625q0 1.40625 -0.75 2.484375q-0.734375 1.0625 -2.09375 1.671875l0 0.09375q1.90625 0.375 3.015625 1.5625q1.125 1.1875 1.125 3.125zm-6.40625 -7.96875q0 -0.46875 -0.25 -0.953125q-0.234375 -0.484375 -0.84375 -0.71875q-0.546875 -0.203125 -1.359375 -0.21875q-0.8125 -0.03125 -2.296875 -0.03125l-0.46875 0l0 4.09375l0.78125 0q1.1875 0 2.015625 -0.03125q0.84375 -0.046875 1.328125 -0.265625q0.671875 -0.296875 0.875 -0.765625q0.21875 -0.484375 0.21875 -1.109375zm1.21875 7.890625q0 -0.921875 -0.359375 -1.421875q-0.359375 -0.5 -1.21875 -0.75q-0.578125 -0.171875 -1.609375 -0.171875q-1.03125 -0.015625 -2.15625 -0.015625l-1.09375 0l0 4.828125l0.375 0q2.109375 0 3.015625 -0.015625q0.90625 -0.015625 1.6875 -0.34375q0.78125 -0.328125 1.0625 -0.859375q0.296875 -0.546875 0.296875 -1.25zm25.492065 0.078125q0 1.40625 -0.578125 2.515625q-0.5625 1.109375 -1.546875 1.828125q-1.15625 0.859375 -2.53125 1.234375q-1.359375 0.359375 -3.46875 0.359375l-8.46875 0l0 -19.375l7.53125 0q2.34375 0 3.421875 0.15625q1.09375 0.15625 2.15625 0.6875q1.109375 0.5625 1.640625 1.5q0.546875 0.9375 0.546875 2.15625q0 1.40625 -0.75 2.484375q-0.734375 1.0625 -2.09375 1.671875l0 0.09375q1.90625 0.375 3.015625 1.5625q1.125 1.1875 1.125 3.125zm-6.40625 -7.96875q0 -0.46875 -0.25 -0.953125q-0.234375 -0.484375 -0.84375 -0.71875q-0.546875 -0.203125 -1.359375 -0.21875q-0.8125 -0.03125 -2.296875 -0.03125l-0.46875 0l0 4.09375l0.78125 0q1.1875 0 2.015625 -0.03125q0.84375 -0.046875 1.328125 -0.265625q0.671875 -0.296875 0.875 -0.765625q0.21875 -0.484375 0.21875 -1.109375zm1.21875 7.890625q0 -0.921875 -0.359375 -1.421875q-0.359375 -0.5 -1.21875 -0.75q-0.578125 -0.171875 -1.609375 -0.171875q-1.03125 -0.015625 -2.15625 -0.015625l-1.09375 0l0 4.828125l0.375 0q2.109375 0 3.015625 -0.015625q0.90625 -0.015625 1.6875 -0.34375q0.78125 -0.328125 1.0625 -0.859375q0.296875 -0.546875 0.296875 -1.25zm22.835785 6.015625l-12.9375 0l0 -3.390625l4.078125 0l0 -10.234375l-4.078125 0l0 -3.171875q0.9375 0 1.796875 -0.109375q0.859375 -0.109375 1.421875 -0.375q0.671875 -0.328125 1.015625 -0.84375q0.34375 -0.53125 0.390625 -1.3125l4.3125 0l0 16.046875l4.0 0l0 3.390625z" fill-rule="nonzero"/><path fill="#000000" d="m534.8405 399.0769l3.203125 0l0 3.109375l-3.203125 0l0 -3.109375zm0 9.578125l3.203125 0l0 3.109375l-3.203125 0l0 -3.109375z" fill-rule="nonzero"/><path fill="#000000" fill-opacity="0.0" d="m753.6457 73.22577l46.456665 0l0 49.039368l-46.456665 0z" fill-rule="evenodd"/><path fill="#000000" fill-opacity="0.0" d="m889.4969 489.57657l57.606323 0l0 41.322845l-57.606323 0z" fill-rule="evenodd"/><path fill="#595959" d="m937.39386 513.91296l0 1.125l-6.296875 0q-0.015625 -0.421875 0.140625 -0.8125q0.234375 -0.640625 0.765625 -1.265625q0.53125 -0.625 1.53125 -1.4530945q1.5625 -1.265625 2.109375 -2.015625q0.546875 -0.75 0.546875 -1.40625q0 -0.703125 -0.5 -1.171875q-0.5 -0.484375 -1.296875 -0.484375q-0.859375 0 -1.375 0.515625q-0.5 0.5 -0.5 1.390625l-1.203125 -0.109375q0.125 -1.359375 0.921875 -2.0625q0.8125 -0.703125 2.171875 -0.703125q1.375 0 2.171875 0.765625q0.8125 0.75 0.8125 1.875q0 0.578125 -0.234375 1.140625q-0.234375 0.546875 -0.78125 1.15625q-0.546875 0.609375 -1.8125 1.6718445q-1.046875 0.890625 -1.359375 1.21875q-0.296875 0.3125 -0.484375 0.625l4.671875 0z" fill-rule="nonzero"/></g></svg>